<?xml version="1.0" encoding="UTF-8"?>
<!-- Created with Inkscape (http://www.inkscape.org/) -->
<svg id="svg446" width="100" height="100" version="1.1" viewBox="0 0 26.458 26.458" xml:space="preserve" xmlns="http://www.w3.org/2000/svg" xmlns:cc="http://creativecommons.org/ns#" xmlns:dc="http://purl.org/dc/elements/1.1/" xmlns:rdf="http://www.w3.org/1999/02/22-rdf-syntax-ns#"><g id="layer1" fill="#29331f" stroke-width="1.1836"><path id="path410" d="m18.829-3.8344-2.3508 0.54364 0.62838 2.7182 2.3787-0.54984-0.1509-0.65216-1.5053 0.3483-0.095602-0.41496 1.264-0.29249-0.14418-0.62373-1.264 0.29197-0.086816-0.37517 1.4774-0.34158-0.1509-0.65216zm-3.4132 0.81235c-0.065902-2.46e-5 -0.13306 0.0079361-0.20154 0.023771l-1.8097 0.41806 0.62838 2.7182 1.8335-0.42375c0.14487-0.033486 0.27063-0.094861 0.37776-0.18345 0.10716-0.088586 0.18283-0.19451 0.22634-0.31833 0.04554-0.12706 0.051474-0.26188 0.018604-0.40411-0.086462-0.37399-0.31107-0.56038-0.67438-0.55966l-0.003617-0.01602c0.28281-0.15694 0.38533-0.40241 0.30799-0.73691-0.029234-0.12642-0.089681-0.23299-0.1819-0.31988-0.089598-0.087493-0.19895-0.14563-0.32763-0.17415-0.063325-0.015884-0.12788-0.023746-0.19379-0.023771zm-2.635 0.58601-0.87333 0.20205 0.62839 2.7182 0.87333-0.20205-0.62838-2.7182zm2.2763 0.10645c0.04034-9.938e-4 0.078803 0.010922 0.11576 0.035657 0.04866 0.030372 0.079628 0.074342 0.093018 0.13229l0.009301 0.039791c0.014 0.060582 0.006516 0.11616-0.023254 0.16743-0.027744 0.04803-0.070734 0.079101-0.12867 0.092501l-0.60048 0.13849-0.10697-0.46199 0.60048-0.13901c0.013824-0.00319 0.027377-0.0048364 0.040824-0.0051676zm-4.3222 0.39688c-0.087381 8.51e-5 -0.18005 0.011576-0.2775 0.034106l-1.6635 0.38447 0.6289 2.7182 0.87281-0.20205-0.22944-0.99167 0.32401-0.074931 0.71158 0.88005 0.97978-0.22634-0.86765-0.99787c0.15659-0.10279 0.26396-0.23203 0.32246-0.38706 0.0585-0.15503 0.068859-0.31517 0.030489-0.48111-0.034705-0.15013-0.10223-0.28017-0.20257-0.39016-0.098329-0.1132-0.22576-0.19055-0.38241-0.23203-0.07731-0.02236-0.15963-0.033675-0.24701-0.03359zm4.6235 0.61133c0.041341-0.0012389 0.079772 0.010951 0.11472 0.036174 0.04862 0.030367 0.080031 0.075846 0.094051 0.13643l0.008785 0.039274c0.014 0.060581 0.005999 0.11668-0.023771 0.16795-0.027744 0.04803-0.070217 0.078584-0.12816 0.091984l-0.66404 0.15348-0.10749-0.46612 0.66353-0.15348c0.01449-0.003355 0.028594-0.0052715 0.042374-0.0056845zm-4.9242 0.0863c0.049466-0.0020742 0.095749 0.010386 0.13953 0.037724 0.058385 0.036449 0.095698 0.09012 0.11214 0.16123 0.01643 0.071107 0.006901 0.13743-0.028939 0.19844-0.036448 0.058375-0.088617 0.095274-0.1571 0.1111l-0.57309 0.13229-0.11576-0.50178 0.57257-0.13229c0.01712-0.00396 0.034155-0.0060265 0.050643-0.0067179zm-3.0009 0.030489c-0.13401 9.37e-4 -0.27676 0.018808-0.42788 0.053744-0.46356 0.10717-0.78767 0.30699-0.97255 0.59945-0.18225 0.29185-0.21982 0.66971-0.11265 1.1333 0.10717 0.46356 0.30656 0.78669 0.59841 0.96893 0.29448 0.18163 0.67332 0.21879 1.1369 0.11162 0.41615-0.096208 0.71471-0.26943 0.89555-0.51935 0.18348-0.25051 0.2326-0.56139 0.14676-0.93276l-0.80615 0.18604c0.03654 0.15803 0.021345 0.2909-0.045475 0.39791-0.066823 0.10701-0.18438 0.18014-0.35295 0.21911-0.1712 0.039577-0.31182 0.013625-0.42168-0.077515-0.10783-0.09438-0.18438-0.23918-0.22944-0.43408l-0.058394-0.2527c-0.0457-0.19754-0.040577-0.36091 0.015503-0.49041 0.058709-0.1301 0.17648-0.21552 0.35295-0.25632 0.15275-0.03529 0.28047-0.016436 0.38344 0.056844 0.10559 0.0727 0.17688 0.1882 0.21342 0.34623l0.83354-0.19275c-0.086466-0.374-0.27018-0.63433-0.55087-0.78031-0.17581-0.092881-0.37507-0.1385-0.59841-0.13694zm-2.9471 0.69246c-0.15111-0.0025225-0.31347 0.016137-0.48731 0.056327v5.1677e-4c-0.35294 0.081591-0.62896 0.22018-0.82786 0.416-0.1969 0.19257-0.26105 0.43773-0.19224 0.73536 0.04687 0.20283 0.13797 0.35089 0.27337 0.44442 0.13539 0.093558 0.28169 0.14979 0.43873 0.16898 0.15643 0.01662 0.35071 0.02292 0.58291 0.01912 0.19026-0.00514 0.32906 5.664e-4 0.416 0.016536 0.088959 0.012735 0.14084 0.051982 0.15606 0.11782 0.01706 0.073739-0.0082111 0.13081-0.076481 0.17157-0.065634 0.04014-0.15396 0.073122-0.26458 0.098702-0.15013 0.03466-0.2658 0.037642-0.34727 0.0093018-0.082076-0.030968-0.13887-0.1147-0.17053-0.25166l-0.82579 0.19069c0.083419 0.36084 0.25877 0.58533 0.52607 0.67334 0.26993 0.087435 0.61671 0.08201 1.0408-0.01602 0.36348-0.084028 0.63541-0.22823 0.81545-0.43357 0.18268-0.20594 0.23707-0.46983 0.16278-0.79117-0.046486-0.18901-0.13521-0.32661-0.26613-0.41289-0.13093-0.086262-0.27314-0.13688-0.42633-0.15141-0.15116-0.017797-0.34103-0.02337-0.56999-0.01757-0.19553 0.00636-0.33982 0.0018309-0.43202-0.012919-0.092203-0.014755-0.14634-0.057564-0.16278-0.12867-0.01157-0.050054 0.008825-0.099038 0.061495-0.14728 0.055297-0.048857 0.14094-0.086898 0.25683-0.11369 0.11851-0.02738 0.21306-0.021173 0.28319 0.018087 0.07012 0.039285 0.11404 0.09824 0.13229 0.17725l0.0036173 0.015503 0.81804-0.18862-0.010852-0.047542c-0.069203-0.27534-0.23219-0.45683-0.48834-0.54467-0.12838-0.04523-0.26799-0.069308-0.4191-0.07183zm14.343 0.51418-2.3508 0.54364 0.62838 2.7182 2.3787-0.54984-0.1509-0.65216-1.5053 0.3483-0.095602-0.41496 1.264-0.29249-0.14418-0.62373-1.264 0.29197-0.086816-0.37517 1.4774-0.34158-0.1509-0.65216zm-17.024 0.12247c-0.065904-2.462e-5 -0.13306 0.0074194-0.20154 0.023254l-1.8092 0.41858 0.62839 2.7182 1.833-0.42375c0.14487-0.033486 0.27112-0.094861 0.37827-0.18345 0.10715-0.088592 0.18232-0.19451 0.22583-0.31833 0.04554-0.12706 0.052-0.26188 0.01912-0.40411-0.086465-0.37398-0.31159-0.56038-0.67489-0.55966l-0.0036173-0.01602c0.28279-0.15694 0.38532-0.40241 0.30799-0.73691-0.029226-0.12643-0.089671-0.233-0.1819-0.31988-0.089593-0.087502-0.19895-0.14563-0.32763-0.17415-0.063326-0.015884-0.12788-0.023747-0.19379-0.023771zm-2.5957 0.57723-0.87281 0.20154 0.37259 1.6118c0.03472 0.15014 0.020605 0.28108-0.042375 0.39274-0.060333 0.11106-0.16861 0.18473-0.32401 0.22066-0.15539 0.03592-0.28418 0.018477-0.38654-0.052193-0.10296-0.07331-0.17191-0.18623-0.20722-0.339l-0.37259-1.6118-0.87333 0.20154 0.37569 1.6237c0.085854 0.37138 0.2683 0.62772 0.54777 0.76843 0.28211 0.1401 0.6393 0.16032 1.0713 0.060461 0.43195-0.099861 0.74237-0.27439 0.93173-0.52348 0.18935-0.2491 0.2414-0.55932 0.15555-0.93069l-0.37569-1.6237zm16.206 0.11265c-0.065902-2.469e-5 -0.13306 0.0079383-0.20154 0.023771l-1.8097 0.41806 0.62838 2.7182 1.8335-0.42375c0.14487-0.033486 0.27063-0.094859 0.37776-0.18345 0.10716-0.088586 0.18283-0.19451 0.22634-0.31833 0.04554-0.12706 0.051474-0.26188 0.018604-0.40411-0.086462-0.37399-0.31107-0.56038-0.67438-0.55966l-0.003617-0.01602c0.28281-0.15694 0.38533-0.40241 0.30799-0.73691-0.029234-0.12642-0.089681-0.23298-0.1819-0.31988-0.089598-0.087491-0.19895-0.14563-0.32763-0.17415-0.063325-0.015882-0.12788-0.023746-0.19379-0.023771zm-13.969 0.0025838c0.04034-9.9375e-4 0.07932 0.010922 0.11627 0.035657 0.04863 0.030372 0.079618 0.074342 0.093018 0.13229l0.008785 0.039791c0.01399 0.060583 0.0065056 0.11616-0.023254 0.16743-0.027739 0.04803-0.070724 0.079101-0.12867 0.092501l-0.60048 0.13849-0.10697-0.46199 0.60048-0.13901c0.013823-0.00319 0.027378-0.0048364 0.040824-0.0051676zm11.334 0.58343-0.87333 0.20205 0.62839 2.7182 0.87333-0.20205-0.62838-2.7182zm2.2763 0.10645c0.04034-9.931e-4 0.078803 0.01092 0.11576 0.035657 0.04866 0.030373 0.079628 0.074347 0.093018 0.13229l0.009301 0.039791c0.014 0.060581 0.006516 0.11616-0.023254 0.16743-0.027744 0.04803-0.070734 0.079104-0.12867 0.092501l-0.60048 0.13849-0.10697-0.46199 0.60048-0.13901c0.013824-0.0031898 0.027377-0.0048366 0.040824-0.0051677zm-19.788 0.11214c-0.15111-0.0025212-0.31347 0.016142-0.48731 0.056327h-5.167e-4c-0.35294 0.081591-0.62845 0.22018-0.82734 0.416-0.1969 0.19257-0.26105 0.43773-0.19224 0.73536 0.046874 0.20282 0.13797 0.35088 0.27337 0.44442 0.13539 0.093555 0.28169 0.1503 0.43873 0.1695 0.15643 0.01662 0.3507 0.02292 0.58291 0.01912 0.19026-0.00514 0.32907 4.97e-5 0.416 0.01602 0.088987 0.012697 0.14084 0.051972 0.15606 0.11782 0.01707 0.073744-0.0087178 0.13131-0.076998 0.17208-0.065637 0.04015-0.15345 0.072615-0.26407 0.098185-0.15013 0.03474-0.26631 0.038138-0.34778 0.0098185-0.082072-0.030969-0.13886-0.11522-0.17053-0.25218l-0.82579 0.1912c0.083414 0.36085 0.25928 0.58531 0.52658 0.67334 0.26993 0.087424 0.61671 0.08202 1.0408-0.01602 0.36347-0.084033 0.6354-0.22876 0.81545-0.43408 0.18269-0.20594 0.23655-0.46932 0.16226-0.79065-0.046472-0.18904-0.1352-0.32715-0.26613-0.41341-0.13092-0.086268-0.27263-0.13637-0.42581-0.1509-0.15116-0.017797-0.34155-0.023887-0.57051-0.018087-0.19553 0.00636-0.3393 0.0023477-0.4315-0.012402-0.092197-0.014761-0.14634-0.058081-0.16278-0.12919-0.01158-0.050049 0.0088249-0.099038 0.061495-0.14728 0.055297-0.048857 0.14094-0.086381 0.25683-0.11317 0.11853-0.02741 0.21256-0.02172 0.28267 0.01757 0.070132 0.03927 0.11455 0.09822 0.13281 0.17725l0.0036174 0.01602 0.81804-0.18914-0.011369-0.047542c-0.069207-0.27533-0.23168-0.45683-0.48783-0.54467-0.12838-0.04523-0.26799-0.068792-0.4191-0.071314zm6.4792 0.20619c0.041337-0.0012389 0.079247 0.010951 0.1142 0.036174 0.04863 0.030373 0.080041 0.075846 0.094051 0.13643l0.008785 0.039274c0.014 0.060582 0.0065156 0.11668-0.023254 0.16795-0.027746 0.04803-0.070734 0.078584-0.12867 0.091984l-0.66404 0.15348-0.10749-0.46612 0.66404-0.15348c0.014488-0.003355 0.028596-0.0052715 0.042375-0.0056844zm8.9865 0.078548c-0.087381 8.52e-5 -0.18005 0.011575-0.2775 0.034106l-1.6635 0.38447 0.6289 2.7182 0.87281-0.20205-0.22944-0.99167 0.32401-0.074931 0.71158 0.88005 0.97978-0.22634-0.86765-0.99787c0.15659-0.10279 0.26396-0.23203 0.32246-0.38706 0.0585-0.15503 0.068859-0.31517 0.030489-0.48111-0.034705-0.15013-0.10223-0.28017-0.20257-0.39016-0.098329-0.1132-0.22576-0.19055-0.38241-0.23203-0.07731-0.022361-0.15963-0.033675-0.24701-0.03359zm4.6235 0.61133c0.041341-0.0012374 0.079772 0.010948 0.11472 0.036174 0.04862 0.030367 0.080031 0.075846 0.094051 0.13643l0.008785 0.039274c0.014 0.060581 0.005999 0.11668-0.023771 0.16795-0.027744 0.04803-0.070217 0.078587-0.12816 0.091984l-0.66404 0.15348-0.10749-0.46612 0.66353-0.15348c0.01449-0.0033527 0.028594-0.0052719 0.042374-0.0056844zm-4.9242 0.0863c0.049466-0.0020735 0.095749 0.010387 0.13953 0.037724 0.058385 0.03645 0.095698 0.090119 0.11214 0.16123 0.01643 0.071108 0.006901 0.13743-0.028939 0.19844-0.036448 0.058374-0.088617 0.095275-0.1571 0.1111l-0.57309 0.13229-0.11576-0.50178 0.57257-0.13229c0.01712-0.003959 0.034155-0.0060268 0.050643-0.0067179zm-3.0009 0.030489c-0.13401 9.367e-4 -0.27676 0.018807-0.42788 0.053744-0.46356 0.10717-0.78767 0.30699-0.97255 0.59945-0.18225 0.29185-0.21982 0.66971-0.11265 1.1333 0.10717 0.46356 0.30656 0.78669 0.59841 0.96893 0.29448 0.18164 0.67332 0.21879 1.1369 0.11162 0.41615-0.096208 0.71471-0.26944 0.89555-0.51935 0.18348-0.25051 0.2326-0.56139 0.14676-0.93276l-0.80615 0.18604c0.03654 0.15803 0.021345 0.2909-0.045475 0.39791-0.066823 0.10701-0.18438 0.18014-0.35295 0.21911-0.1712 0.039574-0.31182 0.013622-0.42168-0.077515-0.10783-0.094379-0.18438-0.23918-0.22944-0.43408l-0.058394-0.2527c-0.0457-0.19754-0.040577-0.36091 0.015503-0.49041 0.058709-0.1301 0.17648-0.21552 0.35295-0.25632 0.15275-0.035292 0.28047-0.01644 0.38344 0.056844 0.10559 0.0727 0.17688 0.1882 0.21342 0.34623l0.83354-0.19275c-0.086466-0.374-0.27018-0.63433-0.55087-0.78031-0.17581-0.092883-0.37507-0.1385-0.59841-0.13694zm-2.9471 0.69246c-0.15111-0.0025222-0.31347 0.01614-0.48731 0.056327-0.35294 0.081591-0.62896 0.2207-0.82786 0.41651-0.1969 0.19257-0.26105 0.43773-0.19224 0.73536 0.04687 0.20283 0.13797 0.35089 0.27337 0.44442 0.13539 0.093558 0.28169 0.1498 0.43873 0.16898 0.15643 0.016576 0.35071 0.02289 0.58291 0.01912 0.19026-0.005138 0.32906 5.625e-4 0.416 0.016536 0.088959 0.012735 0.14084 0.051979 0.15606 0.11782 0.01706 0.073743-0.0082111 0.1308-0.076481 0.17157-0.065634 0.040141-0.15396 0.07312-0.26458 0.098702-0.15013 0.034708-0.2658 0.037646-0.34727 0.0093018-0.082076-0.030968-0.13887-0.1147-0.17053-0.25166l-0.82579 0.19069c0.083419 0.36084 0.25877 0.58531 0.52607 0.67334 0.26993 0.08743 0.61671 0.082014 1.0408-0.01602 0.36348-0.084027 0.63541-0.22823 0.81545-0.43357 0.18268-0.20594 0.23707-0.46983 0.16278-0.79117-0.046486-0.18901-0.13521-0.32662-0.26613-0.41289-0.13093-0.086261-0.27314-0.13688-0.42633-0.15141-0.15116-0.017798-0.34103-0.02336-0.56999-0.01757-0.19553 0.006354-0.33982 0.0018319-0.43202-0.012919-0.092203-0.014755-0.14634-0.057563-0.16278-0.12867-0.01157-0.05005 0.008825-0.099038 0.061495-0.14728 0.055297-0.048858 0.14094-0.086901 0.25683-0.11369 0.11851-0.02738 0.21306-0.021171 0.28319 0.018087 0.07012 0.039284 0.11404 0.098241 0.13229 0.17725l0.0036173 0.015503 0.81804-0.18862-0.010852-0.047542c-0.069203-0.27534-0.23219-0.45683-0.48834-0.54467-0.12838-0.045232-0.26799-0.069308-0.4191-0.07183zm14.343 0.34675-2.3508 0.54364 0.62838 2.7182 2.3787-0.54984-0.1509-0.65216-1.5053 0.34778-0.095602-0.41444 1.264-0.29249-0.14418-0.62425-1.264 0.29249-0.086816-0.37569 1.4774-0.34158-0.1509-0.65164zm-17.024 0.2899c-0.065904-2.47e-5 -0.13306 0.0074214-0.20154 0.023254l-1.8092 0.41858 0.62839 2.7182 1.833-0.42375c0.14487-0.033486 0.27112-0.094859 0.37827-0.18345 0.10715-0.088591 0.18232-0.19451 0.22583-0.31833 0.04554-0.12706 0.052-0.26188 0.01912-0.40411-0.086465-0.37398-0.31159-0.56038-0.67489-0.55966l-0.0036173-0.01602c0.28279-0.15694 0.38532-0.40241 0.30799-0.73691-0.029226-0.12643-0.089671-0.23299-0.1819-0.31988-0.089593-0.087498-0.19895-0.14563-0.32763-0.17415-0.063326-0.015882-0.12788-0.023746-0.19379-0.023771zm13.611 0.52193c-0.065902-2.46e-5 -0.13306 0.0079362-0.20154 0.023771l-1.8097 0.41858 0.62838 2.7177 1.8335-0.42375c0.14487-0.033486 0.27063-0.094345 0.37776-0.18293 0.10716-0.088586 0.18283-0.19451 0.22634-0.31833 0.04554-0.12706 0.051474-0.26188 0.018604-0.40411-0.086462-0.37399-0.31107-0.5609-0.67438-0.56017l-0.003617-0.015503c0.28281-0.15694 0.38533-0.40292 0.30799-0.73742-0.029234-0.12642-0.089681-0.23299-0.1819-0.31988-0.089598-0.087493-0.19895-0.14511-0.32763-0.17363-0.063325-0.015884-0.12788-0.024263-0.19379-0.024288zm-16.206 0.055294-0.87281 0.20154 0.37259 1.6118c0.03472 0.15014 0.020605 0.28108-0.042375 0.39274-0.060333 0.11106-0.16861 0.18473-0.32401 0.22066-0.15539 0.035914-0.28418 0.018473-0.38654-0.052193-0.10296-0.07331-0.17191-0.18623-0.20722-0.339l-0.37259-1.6118-0.87333 0.20154 0.37569 1.6237c0.085854 0.37138 0.2683 0.62772 0.54777 0.76843 0.28211 0.1401 0.6393 0.16032 1.0713 0.060461 0.43195-0.099861 0.74237-0.27439 0.93173-0.52348 0.18935-0.2491 0.2414-0.55932 0.15555-0.93069l-0.37569-1.6237zm2.2371 0.11524c0.04034-9.934e-4 0.07932 0.01092 0.11627 0.035657 0.04863 0.030373 0.079618 0.074347 0.093018 0.13229l0.008785 0.039791c0.01399 0.060583 0.0065056 0.11616-0.023254 0.16743-0.027739 0.04803-0.070724 0.079104-0.12867 0.092501l-0.60048 0.13849-0.10697-0.46199 0.60048-0.13901c0.013823-0.00319 0.027378-0.0048365 0.040824-0.0051676zm11.334 0.416-0.87333 0.20205 0.62839 2.7177 0.87333-0.20154-0.62838-2.7182zm2.2763 0.10645c0.04034-9.938e-4 0.078803 0.010922 0.11576 0.035657 0.04866 0.030372 0.079628 0.074342 0.093018 0.13229l0.009301 0.039274c0.014 0.060582 0.006516 0.11668-0.023254 0.16795-0.027744 0.04803-0.070734 0.078584-0.12867 0.091984l-0.60048 0.13901-0.10697-0.46199 0.60048-0.13901c0.013824-0.00319 0.027377-0.0048364 0.040824-0.0051676zm-19.788 0.27905c-0.15111-0.0025224-0.31347 0.016657-0.48731 0.056844h-5.167e-4c-0.35294 0.081591-0.62845 0.22018-0.82734 0.416-0.1969 0.19257-0.26105 0.43773-0.19224 0.73536 0.046874 0.20282 0.13797 0.35088 0.27337 0.44442 0.13539 0.093558 0.28169 0.1503 0.43873 0.1695 0.15643 0.016606 0.3507 0.02292 0.58291 0.01912 0.19026-0.005136 0.32907 4.97e-5 0.416 0.01602 0.088987 0.012697 0.14084 0.051976 0.15606 0.11782 0.01707 0.07374-0.0087178 0.13132-0.076998 0.17208-0.065637 0.040148-0.15345 0.072617-0.26407 0.098185-0.15013 0.034694-0.26631 0.038144-0.34778 0.0098185-0.082072-0.030969-0.13886-0.11522-0.17053-0.25218l-0.82579 0.1912c0.083414 0.36085 0.25928 0.58532 0.52658 0.67334 0.26993 0.087429 0.61671 0.082016 1.0408-0.01602 0.36347-0.084033 0.6354-0.22876 0.81545-0.43408 0.18269-0.20594 0.23655-0.46932 0.16226-0.79065-0.046472-0.18904-0.1352-0.32715-0.26613-0.41341-0.13092-0.086266-0.27263-0.13636-0.42581-0.1509-0.15116-0.017798-0.34155-0.023877-0.57051-0.018087-0.19553 0.006354-0.3393 0.0023487-0.4315-0.012402-0.092197-0.01476-0.14634-0.05808-0.16278-0.12919-0.01158-0.050046 0.0088249-0.099038 0.061495-0.14728 0.055297-0.048858 0.14094-0.086384 0.25683-0.11317 0.11853-0.02741 0.21256-0.021717 0.28267 0.01757 0.070132 0.03927 0.11455 0.098222 0.13281 0.17725l0.0036174 0.01602 0.81804-0.18914-0.011369-0.047542c-0.069207-0.27533-0.23168-0.45683-0.48783-0.54467-0.12838-0.045232-0.26799-0.069308-0.4191-0.07183zm15.466 0.11782c-0.087381 8.51e-5 -0.18005 0.01106-0.2775 0.03359l-1.6635 0.38447 0.6289 2.7182 0.87281-0.20154-0.22944-0.99167 0.32401-0.074931 0.71158 0.88005 0.97978-0.22634-0.86765-0.99839c0.15659-0.10279 0.26396-0.23151 0.32246-0.38654 0.0585-0.15503 0.068859-0.31569 0.030489-0.48162-0.034705-0.15013-0.10223-0.28017-0.20257-0.39016-0.098329-0.1132-0.22576-0.19055-0.38241-0.23203-0.07731-0.02236-0.15963-0.033158-0.24701-0.033073zm-8.9865 0.088884c0.041337-0.0012375 0.079247 0.010948 0.1142 0.036174 0.04863 0.030374 0.080041 0.075847 0.094051 0.13643l0.008785 0.039274c0.014 0.060581 0.0065156 0.11668-0.023254 0.16795-0.027746 0.04803-0.070734 0.078587-0.12867 0.091984l-0.66404 0.15348-0.10749-0.46612 0.66404-0.15348c0.014488-0.0033528 0.028596-0.005272 0.042375-0.0056844zm13.61 0.52245c0.041341-0.0012389 0.079772 0.010434 0.11472 0.035657 0.04862 0.030367 0.080031 0.075846 0.094051 0.13643l0.008785 0.039791c0.014 0.060581 0.005999 0.11668-0.023771 0.16795-0.027744 0.04803-0.070217 0.078584-0.12816 0.091984l-0.66404 0.15348-0.10749-0.46612 0.66353-0.15348c0.01449-0.003355 0.028594-0.0052715 0.042374-0.0056844zm-4.9242 0.085783c0.049466-0.0020743 0.095749 0.010903 0.13953 0.03824 0.058385 0.036449 0.095698 0.09012 0.11214 0.16123 0.01643 0.071107 0.006901 0.13691-0.028939 0.19792-0.036448 0.058375-0.088617 0.095791-0.1571 0.11162l-0.57309 0.13229-0.11576-0.50178 0.57257-0.13229c0.01712-0.00396 0.034155-0.0065433 0.050643-0.0072347zm-3.0009 0.031006c-0.13401 9.37e-4 -0.27676 0.018808-0.42788 0.053744-0.46356 0.10717-0.78767 0.30699-0.97255 0.59945-0.18225 0.29185-0.21982 0.66971-0.11265 1.1333 0.10717 0.46356 0.30656 0.78617 0.59841 0.96842 0.29448 0.18164 0.67332 0.21879 1.1369 0.11162 0.41615-0.096208 0.71471-0.26892 0.89555-0.51883 0.18348-0.25051 0.2326-0.56139 0.14676-0.93276l-0.80615 0.18604c0.03654 0.15803 0.021345 0.29038-0.045475 0.39739-0.066823 0.10701-0.18438 0.18014-0.35295 0.21911-0.1712 0.039577-0.31182 0.014142-0.42168-0.076998-0.10783-0.09438-0.18438-0.23918-0.22944-0.43408l-0.058394-0.2527c-0.0457-0.19754-0.040577-0.36143 0.015503-0.49093 0.058709-0.1301 0.17648-0.21552 0.35295-0.25632 0.15275-0.03529 0.28047-0.016436 0.38344 0.056844 0.10559 0.0727 0.17688 0.1882 0.21342 0.34623l0.83354-0.19275c-0.086466-0.374-0.27018-0.63381-0.55087-0.7798-0.17581-0.092881-0.37507-0.1385-0.59841-0.13694zm-2.9471 0.69246c-0.15111-0.0025225-0.31347 0.016137-0.48731 0.056327-0.35294 0.081591-0.62896 0.22018-0.82786 0.416-0.1969 0.19257-0.26105 0.43773-0.19224 0.73536 0.04687 0.20283 0.13797 0.3514 0.27337 0.44493 0.13539 0.093558 0.28169 0.14979 0.43873 0.16898 0.15643 0.01662 0.35071 0.02292 0.58291 0.01912 0.19026-0.00514 0.32906 4.97e-5 0.416 0.01602 0.088959 0.012735 0.14084 0.052499 0.15606 0.11834 0.01706 0.073739-0.0082111 0.13081-0.076481 0.17157-0.065634 0.04014-0.15396 0.073122-0.26458 0.098702-0.15013 0.03466-0.2658 0.037642-0.34727 0.0093018-0.082076-0.030968-0.13887-0.1147-0.17053-0.25166l-0.82579 0.19069c0.083419 0.36084 0.25877 0.58533 0.52607 0.67334 0.26993 0.087435 0.61671 0.08201 1.0408-0.01602 0.36348-0.084028 0.63541-0.22875 0.81545-0.43408 0.18268-0.20594 0.23707-0.46932 0.16278-0.79065-0.046486-0.18901-0.13521-0.32661-0.26613-0.41289-0.13093-0.086262-0.27314-0.13688-0.42633-0.15141-0.15116-0.017797-0.34103-0.023887-0.56999-0.018087-0.19553 0.00636-0.33982 0.0023477-0.43202-0.012402-0.092203-0.014755-0.14634-0.057564-0.16278-0.12867-0.01157-0.050054 0.008825-0.099555 0.061495-0.14779 0.055297-0.048857 0.14094-0.086381 0.25683-0.11317 0.11851-0.02738 0.21306-0.02169 0.28319 0.01757 0.07012 0.039285 0.11404 0.098757 0.13229 0.17777l0.0036173 0.015503 0.81804-0.18914-0.010852-0.047542c-0.069203-0.27534-0.23219-0.45683-0.48834-0.54467-0.12838-0.04523-0.26799-0.068791-0.4191-0.071314zm14.343 0.51315-2.3508 0.54312 0.62838 2.7182 2.3787-0.54984-0.1509-0.65164-1.5053 0.34778-0.095602-0.41444 1.264-0.29249-0.14418-0.62425-1.264 0.29249-0.086816-0.37569 1.4774-0.34158-0.1509-0.65164zm-17.024 0.12299c-0.065904-2.47e-5 -0.13306 0.0079361-0.20154 0.023771l-1.8092 0.41858 0.62839 2.7177 1.833-0.42375c0.14487-0.033486 0.27112-0.094344 0.37827-0.18293 0.10715-0.088592 0.18232-0.19502 0.22583-0.31884 0.04554-0.12706 0.052-0.26136 0.01912-0.40359-0.086465-0.37398-0.31159-0.5609-0.67489-0.56017l-0.0036173-0.015503c0.28279-0.15694 0.38532-0.40292 0.30799-0.73742-0.029226-0.12643-0.089671-0.233-0.1819-0.31988-0.089593-0.087502-0.19895-0.14563-0.32763-0.17415-0.063326-0.015884-0.12788-0.023746-0.19379-0.023771zm-2.5957 0.57723-0.87281 0.20205 0.37259 1.6118c0.03472 0.15014 0.020605 0.28108-0.042375 0.39274-0.060333 0.11106-0.16861 0.18473-0.32401 0.22066-0.15539 0.03592-0.28418 0.018477-0.38654-0.052193-0.10296-0.07331-0.17191-0.18623-0.20722-0.339l-0.37259-1.6123-0.87333 0.20205 0.37569 1.6237c0.085854 0.37138 0.2683 0.62772 0.54777 0.76843 0.28211 0.1401 0.6393 0.1598 1.0713 0.059944 0.43195-0.099861 0.74237-0.27438 0.93173-0.52348 0.18935-0.2491 0.2414-0.55932 0.15555-0.93069l-0.37569-1.6237zm16.206 0.11162c-0.065902-2.46e-5 -0.13306 0.0079362-0.20154 0.023771l-1.8097 0.41806 0.62838 2.7182 1.8335-0.42375c0.14487-0.033486 0.27063-0.094344 0.37776-0.18293 0.10716-0.088586 0.18283-0.19502 0.22634-0.31884 0.04554-0.12706 0.051474-0.26136 0.018604-0.40359-0.086462-0.37399-0.31107-0.5609-0.67438-0.56017l-0.003617-0.015503c0.28281-0.15694 0.38533-0.40292 0.30799-0.73742-0.029234-0.12642-0.089681-0.23299-0.1819-0.31988-0.089598-0.087493-0.19895-0.14563-0.32763-0.17415-0.063325-0.015884-0.12788-0.023747-0.19379-0.023771zm-13.969 0.0041341c0.04034-9.937e-4 0.07932 0.010405 0.11627 0.03514 0.04863 0.030372 0.079618 0.074858 0.093018 0.13281l0.008785 0.039274c0.01399 0.060583 0.0065056 0.11668-0.023254 0.16795-0.027739 0.04803-0.070724 0.078584-0.12867 0.091984l-0.60048 0.13901-0.10697-0.4625 0.60048-0.13849c0.013823-0.00319 0.027378-0.0048364 0.040824-0.0051677zm11.334 0.58239-0.87333 0.20154 0.62839 2.7182 0.87333-0.20154-0.62838-2.7182zm2.2763 0.10594c0.04034-9.938e-4 0.078803 0.010922 0.11576 0.035657 0.04866 0.030372 0.079628 0.074858 0.093018 0.13281l0.009301 0.039274c0.014 0.060582 0.006516 0.11668-0.023254 0.16795-0.027744 0.04803-0.070734 0.078584-0.12867 0.091984l-0.60048 0.13901-0.10697-0.4625 0.60048-0.13849c0.013824-0.00319 0.027377-0.0053532 0.040824-0.0056844zm-19.788 0.11317c-0.15111-0.0025213-0.31347 0.016142-0.48731 0.056327l-5.167e-4 5.167e-4c-0.35294 0.081591-0.62845 0.22018-0.82734 0.416-0.1969 0.19257-0.26105 0.43773-0.19224 0.73536 0.046874 0.20282 0.13797 0.35088 0.27337 0.44442 0.13539 0.093555 0.28169 0.14978 0.43873 0.16898 0.15643 0.01662 0.3507 0.02292 0.58291 0.01912 0.19026-0.00514 0.32907 5.67e-4 0.416 0.016537 0.088987 0.012697 0.14084 0.051972 0.15606 0.11782 0.01707 0.073744-0.0087178 0.1308-0.076998 0.17157-0.065637 0.04015-0.15345 0.073132-0.26407 0.098702-0.15013 0.03474-0.26631 0.038138-0.34778 0.009818-0.082072-0.030969-0.13886-0.11522-0.17053-0.25218l-0.82579 0.19069c0.083414 0.36085 0.25928 0.58531 0.52658 0.67334 0.26993 0.087424 0.61671 0.082537 1.0408-0.015503 0.36347-0.084033 0.6354-0.22876 0.81545-0.43408 0.18269-0.20594 0.23655-0.46984 0.16226-0.79117-0.046472-0.18904-0.1352-0.32664-0.26613-0.4129-0.13092-0.086268-0.27263-0.13636-0.42581-0.1509-0.15116-0.017797-0.34155-0.023887-0.57051-0.018087-0.19553 0.00636-0.3393 0.001831-0.4315-0.012919-0.092197-0.014761-0.14634-0.057564-0.16278-0.12867-0.01158-0.050049 0.0088249-0.099038 0.061495-0.14728 0.055297-0.048857 0.14094-0.086898 0.25683-0.11369 0.11853-0.02741 0.21256-0.021203 0.28267 0.018087 0.070132 0.03927 0.11455 0.09822 0.13281 0.17725l0.0036174 0.01602 0.81804-0.18914-0.011369-0.047542c-0.069207-0.27533-0.23168-0.45683-0.48783-0.54467-0.12838-0.04523-0.26799-0.069309-0.4191-0.07183zm6.4792 0.20671c0.041337-0.0012389 0.079247 0.010434 0.1142 0.035657 0.04863 0.030373 0.080041 0.075846 0.094051 0.13643l0.008785 0.039791c0.014 0.060582 0.0065156 0.11616-0.023254 0.16743-0.027746 0.04803-0.070734 0.079101-0.12867 0.092501l-0.66404 0.15348-0.10749-0.46612 0.66404-0.15348c0.014488-0.003355 0.028596-0.0052714 0.042375-0.0056844zm8.9865 0.076998c-0.087381 8.51e-5 -0.18005 0.011576-0.2775 0.034106l-1.6635 0.38447 0.6289 2.7182 0.87281-0.20206-0.22944-0.99167 0.32401-0.074414 0.71158 0.88005 0.97978-0.22634-0.86765-0.99839c0.15659-0.10279 0.26396-0.23151 0.32246-0.38654 0.0585-0.15503 0.068859-0.31569 0.030489-0.48162-0.034705-0.15013-0.10223-0.28017-0.20257-0.39016-0.098329-0.1132-0.22576-0.19055-0.38241-0.23203-0.07731-0.02236-0.15963-0.033675-0.24701-0.03359zm4.6235 0.61185c0.041341-0.001239 0.079772 0.010435 0.11472 0.035657 0.04862 0.030367 0.080031 0.075846 0.094051 0.13643l0.008785 0.039791c0.014 0.060581 0.005999 0.11616-0.023771 0.16743-0.027744 0.04803-0.070217 0.079101-0.12816 0.092501l-0.66404 0.15348-0.10749-0.46664 0.66353-0.15296c0.01449-0.003355 0.028594-0.005272 0.042374-0.005685zm-4.9242 0.085783c0.049466-0.002074 0.095749 0.010387 0.13953 0.037724 0.058385 0.036449 0.095698 0.090637 0.11214 0.16175 0.01643 0.071107 0.006901 0.13691-0.028939 0.19792-0.036448 0.058375-0.088617 0.095791-0.1571 0.11162l-0.57309 0.13229-0.11576-0.50178 0.57257-0.13229c0.01712-0.00396 0.034155-0.006543 0.050643-0.007235zm-3.0009 0.031006c-0.13401 9.37e-4 -0.27676 0.018809-0.42788 0.053744-0.46356 0.10717-0.78767 0.30699-0.97255 0.59945-0.18225 0.29185-0.21982 0.66919-0.11265 1.1327 0.10717 0.46356 0.30656 0.78669 0.59841 0.96893 0.29448 0.18164 0.67332 0.21879 1.1369 0.11162 0.41615-0.096208 0.71471-0.26943 0.89555-0.51935 0.18348-0.25051 0.2326-0.56139 0.14676-0.93276l-0.80615 0.18655c0.03654 0.15803 0.021345 0.29038-0.045475 0.39739-0.066823 0.10701-0.18438 0.18014-0.35295 0.21911-0.1712 0.039577-0.31182 0.013625-0.42168-0.077515-0.10783-0.09438-0.18438-0.23866-0.22944-0.43356l-0.058394-0.25322c-0.0457-0.19754-0.040577-0.36091 0.015503-0.49041 0.058709-0.1301 0.17648-0.21552 0.35295-0.25632 0.15275-0.03529 0.28047-0.016436 0.38344 0.056844 0.10559 0.0727 0.17688 0.1882 0.21342 0.34623l0.83354-0.19275c-0.086466-0.374-0.27018-0.63381-0.55087-0.7798-0.17581-0.092882-0.37507-0.1385-0.59841-0.13694zm-2.9471 0.69195c-0.15111-0.002522-0.31347 0.016655-0.48731 0.056845-0.35294 0.081591-0.62896 0.22018-0.82786 0.416-0.1969 0.19257-0.26105 0.43773-0.19224 0.73536 0.04687 0.20283 0.13797 0.35089 0.27337 0.44442 0.13539 0.093558 0.28169 0.15031 0.43873 0.1695 0.15643 0.01662 0.35071 0.022921 0.58291 0.019121 0.19026-0.00514 0.32906 4.9e-5 0.416 0.016019 0.088959 0.012735 0.14084 0.051983 0.15606 0.11782 0.01706 0.073739-0.0082111 0.13132-0.076481 0.17208-0.065634 0.04014-0.15396 0.072605-0.26458 0.098185-0.15013 0.03466-0.2658 0.038159-0.34727 0.009819-0.082076-0.030968-0.13887-0.11522-0.17053-0.25218l-0.82579 0.1912c0.083419 0.36084 0.25877 0.58533 0.52607 0.67334 0.26993 0.087435 0.61671 0.08201 1.0408-0.01602 0.36348-0.084028 0.63541-0.22875 0.81545-0.43408 0.18268-0.20594 0.23707-0.46932 0.16278-0.79065-0.046486-0.18901-0.13521-0.32713-0.26613-0.41341-0.13093-0.086262-0.27314-0.13636-0.42633-0.1509-0.15116-0.017797-0.34103-0.023887-0.56999-0.018087-0.19553 0.00636-0.33982 0.002348-0.43202-0.012402-0.092203-0.014755-0.14634-0.058081-0.16278-0.12919-0.01157-0.050054 0.008825-0.099038 0.061495-0.14728 0.055297-0.048857 0.14094-0.086381 0.25683-0.11317 0.11851-0.02738 0.21306-0.02169 0.28319 0.01757 0.07012 0.039285 0.11404 0.09824 0.13229 0.17725l0.0036173 0.016019 0.81804-0.18914-0.010852-0.047543c-0.069203-0.27534-0.23219-0.45683-0.48834-0.54467-0.12838-0.04523-0.26799-0.069308-0.4191-0.071831zm14.343 0.5147-2.3508 0.54312 0.62838 2.7182 2.3787-0.54984-0.1509-0.65164-1.5053 0.34778-0.095602-0.41444 1.264-0.29249-0.14418-0.62425-1.264 0.29249-0.086816-0.37569 1.4774-0.34158-0.1509-0.65164zm-17.024 0.12196c-0.065904-2.5e-5 -0.13306 0.007936-0.20154 0.023771l-1.8092 0.41806 0.62839 2.7182 1.833-0.42375c0.14487-0.033486 0.27112-0.094344 0.37827-0.18293 0.10715-0.088592 0.18232-0.19502 0.22583-0.31884 0.04554-0.12706 0.052-0.26136 0.01912-0.40359-0.086465-0.37398-0.31159-0.5609-0.67489-0.56017l-0.0036173-0.015503c0.28279-0.15694 0.38532-0.40292 0.30799-0.73742-0.029226-0.12643-0.089671-0.233-0.1819-0.31988-0.089593-0.087502-0.19895-0.14563-0.32763-0.17415-0.063326-0.015883-0.12788-0.023746-0.19379-0.023771zm-2.5957 0.57723-0.87281 0.20206 0.37259 1.6118c0.03472 0.15014 0.020605 0.28108-0.042375 0.39274-0.060333 0.11106-0.16861 0.18421-0.32401 0.22014-0.15539 0.03592-0.28418 0.018994-0.38654-0.051676-0.10296-0.07331-0.17191-0.18675-0.20722-0.33951l-0.37259-1.6118-0.87333 0.20205 0.37569 1.6237c0.085854 0.37138 0.2683 0.6272 0.54777 0.76791 0.28211 0.1401 0.6393 0.16032 1.0713 0.060461 0.43195-0.099861 0.74237-0.27438 0.93173-0.52348 0.18935-0.2491 0.2414-0.55932 0.15555-0.93069l-0.37569-1.6237zm16.206 0.11265c-0.065902-2.4e-5 -0.13306 0.007937-0.20154 0.023772l-1.8097 0.41806 0.62838 2.7182 1.8335-0.42375c0.14487-0.033486 0.27063-0.094345 0.37776-0.18294 0.10716-0.088586 0.18283-0.19502 0.22634-0.31884 0.04554-0.12706 0.051474-0.26136 0.018604-0.40359-0.086462-0.37399-0.31107-0.5609-0.67438-0.56017l-0.003617-0.015503c0.28281-0.15694 0.38533-0.40292 0.30799-0.73742-0.029234-0.12642-0.089681-0.23299-0.1819-0.31988-0.089598-0.087493-0.19895-0.14563-0.32763-0.17415-0.063325-0.015884-0.12788-0.023747-0.19379-0.023772zm-13.969 0.002584c0.04034-9.93e-4 0.07932 0.010922 0.11627 0.035657 0.04863 0.030372 0.079618 0.074858 0.093018 0.13281l0.008785 0.039275c0.01399 0.060583 0.0065056 0.11668-0.023254 0.16795-0.027739 0.04803-0.070724 0.078584-0.12867 0.091984l-0.60048 0.13901-0.10697-0.4625 0.60048-0.13849c0.013823-0.00319 0.027378-0.005353 0.040824-0.005685zm11.334 0.58394-0.87333 0.20154 0.62839 2.7182 0.87333-0.20154-0.62838-2.7182zm2.2763 0.10594c0.04034-9.94e-4 0.078803 0.010921 0.11576 0.035656 0.04866 0.030372 0.079628 0.074859 0.093018 0.13281l0.009301 0.039274c0.014 0.060582 0.006516 0.11668-0.023254 0.16795-0.027744 0.04803-0.070734 0.078584-0.12867 0.091984l-0.60048 0.13901-0.10697-0.4625 0.60048-0.13849c0.013824-0.00319 0.027377-0.005353 0.040824-0.005684zm-19.788 0.11214c-0.15111-0.002522-0.31347 0.016142-0.48731 0.056327h-5.167e-4c-0.35294 0.081591-0.62845 0.2207-0.82734 0.41651-0.1969 0.19257-0.26105 0.43721-0.19224 0.73484 0.046874 0.20282 0.13797 0.35139 0.27337 0.44493 0.13539 0.093555 0.28169 0.14978 0.43873 0.16898 0.15643 0.01662 0.3507 0.02292 0.58291 0.01912 0.19026-0.00514 0.32907 5.66e-4 0.416 0.016536 0.088987 0.012697 0.14084 0.051973 0.15606 0.11782 0.01707 0.073744-0.0087178 0.1308-0.076998 0.17156-0.065637 0.04015-0.15345 0.073132-0.26407 0.098702-0.15013 0.03474-0.26631 0.037622-0.34778 0.009302-0.082072-0.030969-0.13886-0.1147-0.17053-0.25166l-0.82579 0.19069c0.083414 0.36085 0.25928 0.58531 0.52658 0.67334 0.26993 0.087424 0.61671 0.08202 1.0408-0.01602 0.36347-0.084033 0.6354-0.22876 0.81545-0.43408 0.18269-0.20594 0.23655-0.46932 0.16226-0.79065-0.046472-0.18904-0.1352-0.32664-0.26613-0.4129-0.13092-0.086268-0.27263-0.13688-0.42581-0.15141-0.15116-0.017797-0.34155-0.023887-0.57051-0.018087-0.19553 0.00636-0.3393 0.002348-0.4315-0.012402-0.092197-0.014761-0.14634-0.057564-0.16278-0.12867-0.01158-0.050049 0.0088249-0.099038 0.061495-0.14728 0.055297-0.048857 0.14094-0.086898 0.25683-0.11369 0.11853-0.02741 0.21256-0.02172 0.28267 0.01757 0.070132 0.03927 0.11455 0.098737 0.13281 0.17777l0.0036174 0.015503 0.81804-0.18914-0.011369-0.047026c-0.069207-0.27533-0.23168-0.45683-0.48783-0.54467-0.12838-0.04523-0.26799-0.069309-0.4191-0.07183zm6.4792 0.20619c0.041337-0.001238 0.079247 0.010951 0.1142 0.036174 0.04863 0.030373 0.080041 0.075846 0.094051 0.13643l0.008785 0.039791c0.014 0.060582 0.0065156 0.11616-0.023254 0.16743-0.027746 0.04803-0.070734 0.079101-0.12867 0.092501l-0.66404 0.15296-0.10749-0.46612 0.66404-0.15348c0.014488-0.003355 0.028596-0.005272 0.042375-0.005685zm8.9865 0.078549c-0.087381 8.5e-5 -0.18005 0.011576-0.2775 0.034106l-1.6635 0.38447 0.6289 2.7182 0.87281-0.20206-0.22944-0.99167 0.32401-0.074414 0.71158 0.88005 0.97978-0.22634-0.86765-0.99839c0.15659-0.10279 0.26396-0.23151 0.32246-0.38654 0.0585-0.15503 0.068859-0.31569 0.030489-0.48162-0.034705-0.15013-0.10223-0.28017-0.20257-0.39016-0.098329-0.1132-0.22576-0.19055-0.38241-0.23203-0.07731-0.022359-0.15963-0.033674-0.24701-0.033589zm4.6235 0.61185c0.041341-0.001239 0.079772 0.010434 0.11472 0.035656 0.04862 0.030367 0.080031 0.075846 0.094051 0.13643l0.008785 0.039791c0.014 0.060581 0.005999 0.11616-0.023771 0.16743-0.027744 0.04803-0.070217 0.0791-0.12816 0.0925l-0.66404 0.15348-0.10749-0.46664 0.66353-0.15296c0.01449-0.003355 0.028594-0.005271 0.042374-0.005684zm-4.9242 0.085782c0.049466-0.002074 0.095749 0.010387 0.13953 0.037724 0.058385 0.036449 0.095698 0.090638 0.11214 0.16175 0.01643 0.071107 0.006901 0.13691-0.028939 0.19792-0.036448 0.058375-0.088617 0.095791-0.1571 0.11162l-0.57309 0.13229-0.11576-0.50178 0.57257-0.13229c0.01712-0.00396 0.034155-0.006543 0.050643-0.007235zm-3.0009 0.031006c-0.13401 9.37e-4 -0.27676 0.018809-0.42788 0.053744-0.46356 0.10717-0.78767 0.30699-0.97255 0.59945-0.18225 0.29185-0.21982 0.66919-0.11265 1.1327 0.10717 0.46356 0.30656 0.78669 0.59841 0.96893 0.29448 0.18164 0.67332 0.21879 1.1369 0.11162 0.41615-0.096208 0.71471-0.26943 0.89555-0.51935 0.18348-0.25051 0.2326-0.56139 0.14676-0.93276l-0.80615 0.18655c0.03654 0.15803 0.021345 0.29038-0.045475 0.39739-0.066823 0.10701-0.18438 0.18014-0.35295 0.21911-0.1712 0.039577-0.31182 0.013625-0.42168-0.077515-0.10783-0.09438-0.18438-0.23866-0.22944-0.43356l-0.058394-0.25321c-0.0457-0.19754-0.040577-0.36091 0.015503-0.49041 0.058709-0.1301 0.17648-0.21552 0.35295-0.25632 0.15275-0.03529 0.28047-0.016436 0.38344 0.056844 0.10559 0.0727 0.17688 0.1882 0.21342 0.34623l0.83354-0.19275c-0.086466-0.374-0.27018-0.63381-0.55087-0.7798-0.17581-0.092881-0.37507-0.1385-0.59841-0.13694zm-2.9471 0.69195c-0.15111-0.002523-0.31347 0.016654-0.48731 0.056844-0.35294 0.081591-0.62896 0.22018-0.82786 0.416-0.1969 0.19257-0.26105 0.43773-0.19224 0.73536 0.04687 0.20283 0.13797 0.35089 0.27337 0.44442 0.13539 0.093558 0.28169 0.15031 0.43873 0.1695 0.15643 0.01662 0.35071 0.02292 0.58291 0.01912 0.19026-0.00514 0.32906 5e-5 0.416 0.01602 0.088959 0.012735 0.14084 0.051982 0.15606 0.11782 0.01706 0.073739-0.0082111 0.13132-0.076481 0.17208-0.065634 0.04014-0.15396 0.072605-0.26458 0.098185-0.15013 0.03466-0.2658 0.038158-0.34727 0.009818-0.082076-0.030968-0.13887-0.11522-0.17053-0.25218l-0.82579 0.1912c0.083419 0.36084 0.25877 0.58533 0.52607 0.67334 0.26993 0.087435 0.61671 0.08201 1.0408-0.01602 0.36348-0.084028 0.63541-0.22875 0.81545-0.43408 0.18268-0.20594 0.23707-0.46932 0.16278-0.79065-0.046486-0.18901-0.13521-0.32713-0.26613-0.41341-0.13093-0.086262-0.27314-0.13636-0.42633-0.1509-0.15116-0.017797-0.34103-0.023887-0.56999-0.018087-0.19553 0.00636-0.33982 0.002348-0.43202-0.012402-0.092203-0.014755-0.14634-0.058081-0.16278-0.12919-0.01157-0.050054 0.008825-0.099038 0.061495-0.14728 0.055297-0.048857 0.14094-0.086381 0.25683-0.11317 0.11851-0.02738 0.21306-0.02169 0.28319 0.01757 0.07012 0.039285 0.11404 0.09824 0.13229 0.17725l0.0036173 0.01602 0.81804-0.18914-0.010852-0.047542c-0.069203-0.27534-0.23219-0.45683-0.48834-0.54467-0.12838-0.04523-0.26799-0.069308-0.4191-0.07183zm14.343 0.41858-2.3508 0.54364 0.62838 2.7182 2.3787-0.54984-0.1509-0.65216-1.5053 0.3483-0.095602-0.41496 1.264-0.29249-0.14418-0.62373-1.264 0.29197-0.086816-0.37517 1.4774-0.34158-0.1509-0.65216zm-17.024 0.21807c-0.065904-2.4e-5 -0.13306 0.007937-0.20154 0.023772l-1.8092 0.41806 0.62839 2.7182 1.833-0.42375c0.14487-0.033486 0.27112-0.094344 0.37827-0.18293 0.10715-0.088592 0.18232-0.19502 0.22583-0.31884 0.04554-0.12706 0.052-0.26136 0.01912-0.40359-0.086465-0.37398-0.31159-0.5609-0.67489-0.56017l-0.0036173-0.015503c0.28279-0.15694 0.38532-0.40292 0.30799-0.73742-0.029226-0.12643-0.089671-0.233-0.1819-0.31988-0.089593-0.087502-0.19895-0.14563-0.32763-0.17415-0.063326-0.015884-0.12788-0.023747-0.19379-0.023772zm-2.5957 0.57723-0.87281 0.20206 0.37259 1.6118c0.03472 0.15014 0.020605 0.28108-0.042375 0.39274-0.060333 0.11106-0.16861 0.18421-0.32401 0.22014-0.15539 0.03592-0.28418 0.018994-0.38654-0.051676-0.10296-0.07331-0.17191-0.18675-0.20722-0.33951l-0.37259-1.6118-0.87333 0.20206 0.37569 1.6237c0.085854 0.37138 0.2683 0.6272 0.54777 0.76791 0.28211 0.1401 0.6393 0.16032 1.0713 0.060461 0.43195-0.099861 0.74237-0.27438 0.93173-0.52348 0.18935-0.2491 0.2414-0.55932 0.15555-0.93069l-0.37569-1.6237zm16.206 0.017053c-0.065902-2.4e-5 -0.13306 0.007937-0.20154 0.023772l-1.8097 0.41806 0.62838 2.7182 1.8335-0.42375c0.14487-0.033486 0.27063-0.094861 0.37776-0.18345 0.10716-0.088586 0.18283-0.19451 0.22634-0.31833 0.04554-0.12706 0.051474-0.26188 0.018604-0.40411-0.086462-0.37399-0.31107-0.56038-0.67438-0.55966l-0.003617-0.01602c0.28281-0.15694 0.38533-0.40241 0.30799-0.73691-0.029234-0.12642-0.089681-0.23299-0.1819-0.31988-0.089598-0.087493-0.19895-0.14563-0.32763-0.17415-0.063325-0.015884-0.12788-0.023747-0.19379-0.023772zm-13.969 0.098186c0.04034-9.94e-4 0.07932 0.010921 0.11627 0.035656 0.04863 0.030372 0.079618 0.074859 0.093018 0.13281l0.008785 0.039274c0.01399 0.060583 0.0065056 0.11668-0.023254 0.16795-0.027739 0.04803-0.070724 0.078584-0.12867 0.091984l-0.60048 0.13901-0.10697-0.4625 0.60048-0.13849c0.013823-0.00319 0.027378-0.005353 0.040824-0.005684zm11.334 0.48782-0.87333 0.20206 0.62839 2.7182 0.87333-0.20206-0.62838-2.7182zm2.2763 0.10645c0.04034-9.94e-4 0.078803 0.010921 0.11576 0.035656 0.04866 0.030372 0.079628 0.074342 0.093018 0.13229l0.009301 0.039791c0.014 0.060582 0.006516 0.11616-0.023254 0.16743-0.027744 0.04803-0.070734 0.079101-0.12867 0.092501l-0.60048 0.13849-0.10697-0.46199 0.60048-0.13901c0.013824-0.00319 0.027377-0.004836 0.040824-0.005167zm-19.788 0.20774c-0.15111-0.002521-0.31347 0.016142-0.48731 0.056327h-5.167e-4c-0.35294 0.081591-0.62845 0.2207-0.82734 0.41651-0.1969 0.19257-0.26105 0.43721-0.19224 0.73484 0.046874 0.20282 0.13797 0.35139 0.27337 0.44493 0.13539 0.093555 0.28169 0.14978 0.43873 0.16898 0.15643 0.01662 0.3507 0.02292 0.58291 0.01912 0.19026-0.00514 0.32907 5.67e-4 0.416 0.016537 0.088987 0.012697 0.14084 0.051972 0.15606 0.11782 0.01707 0.073744-0.0087178 0.1308-0.076998 0.17157-0.065637 0.04015-0.15345 0.073132-0.26407 0.098702-0.15013 0.03474-0.26631 0.037622-0.34778 0.009302-0.082072-0.030969-0.13886-0.1147-0.17053-0.25166l-0.82579 0.19069c0.083414 0.36085 0.25928 0.58531 0.52658 0.67334 0.26993 0.087424 0.61671 0.082021 1.0408-0.016019 0.36347-0.084033 0.6354-0.22876 0.81545-0.43408 0.18269-0.20594 0.23655-0.46932 0.16226-0.79065-0.046472-0.18904-0.1352-0.32664-0.26613-0.4129-0.13092-0.086268-0.27263-0.13688-0.42581-0.15141-0.15116-0.017797-0.34155-0.023886-0.57051-0.018086-0.19553 0.00636-0.3393 0.002347-0.4315-0.012403-0.092197-0.014761-0.14634-0.057564-0.16278-0.12867-0.01158-0.050049 0.0088249-0.099038 0.061495-0.14728 0.055297-0.048857 0.14094-0.086898 0.25683-0.11369 0.11853-0.02741 0.21256-0.02172 0.28267 0.01757 0.070132 0.03927 0.11455 0.098737 0.13281 0.17777l0.0036174 0.015503 0.81804-0.18914-0.011369-0.047025c-0.069207-0.27533-0.23168-0.45683-0.48783-0.54467-0.12838-0.04523-0.26799-0.069309-0.4191-0.07183zm15.466 0.18914c-0.087381 8.5e-5 -0.18005 0.011576-0.2775 0.034106l-1.6635 0.38447 0.6289 2.7182 0.87281-0.20206-0.22944-0.99167 0.32401-0.07493 0.71158 0.88005 0.97978-0.22634-0.86765-0.99787c0.15659-0.10279 0.26396-0.23203 0.32246-0.38706 0.0585-0.15503 0.068859-0.31518 0.030489-0.48111-0.034705-0.15013-0.10223-0.28017-0.20257-0.39016-0.098329-0.1132-0.22576-0.19055-0.38241-0.23203-0.07731-0.022359-0.15963-0.033675-0.24701-0.033589zm-8.9865 0.017053c0.041337-0.001239 0.079247 0.010951 0.1142 0.036173 0.04863 0.030373 0.080041 0.075846 0.094051 0.13643l0.008785 0.039791c0.014 0.060582 0.0065156 0.11616-0.023254 0.16743-0.027746 0.04803-0.070734 0.0791-0.12867 0.0925l-0.66404 0.15296-0.10749-0.46612 0.66404-0.15348c0.014488-0.003355 0.028596-0.005271 0.042375-0.005684zm13.61 0.59428c0.041341-0.001239 0.079772 0.010951 0.11472 0.036173 0.04862 0.030367 0.080031 0.075846 0.094051 0.13643l0.008785 0.039274c0.014 0.060581 0.005999 0.11668-0.023771 0.16795-0.027744 0.04803-0.070217 0.078584-0.12816 0.091984l-0.66404 0.15348-0.10749-0.46612 0.66353-0.15348c0.01449-0.003355 0.028594-0.005271 0.042374-0.005684zm-4.9242 0.086299c0.049466-0.002074 0.095749 0.010387 0.13953 0.037724 0.058385 0.036449 0.095698 0.090121 0.11214 0.16123 0.01643 0.071107 0.006901 0.13743-0.028939 0.19844-0.036448 0.058375-0.088617 0.095274-0.1571 0.1111l-0.57309 0.13229-0.11576-0.50178 0.57257-0.13229c0.01712-0.00396 0.034155-0.006026 0.050643-0.006718zm-3.0009 0.030489c-0.13401 9.37e-4 -0.27676 0.018809-0.42788 0.053744-0.46356 0.10717-0.78767 0.30699-0.97255 0.59945-0.18225 0.29185-0.21982 0.66971-0.11265 1.1333 0.10717 0.46356 0.30656 0.78669 0.59841 0.96893 0.29448 0.18164 0.67332 0.21879 1.1369 0.11162 0.41615-0.096208 0.71471-0.26943 0.89555-0.51935 0.18348-0.25051 0.2326-0.56139 0.14676-0.93276l-0.80615 0.18604c0.03654 0.15803 0.021345 0.2909-0.045475 0.39791-0.066823 0.10701-0.18438 0.18014-0.35295 0.21911-0.1712 0.039577-0.31182 0.013625-0.42168-0.077515-0.10783-0.09438-0.18438-0.23918-0.22944-0.43408l-0.058394-0.2527c-0.0457-0.19754-0.040577-0.36091 0.015503-0.49041 0.058709-0.1301 0.17648-0.21552 0.35295-0.25632 0.15275-0.03529 0.28047-0.016436 0.38344 0.056844 0.10559 0.0727 0.17688 0.1882 0.21342 0.34623l0.83354-0.19275c-0.086466-0.374-0.27018-0.63433-0.55087-0.78031-0.17581-0.092881-0.37507-0.1385-0.59841-0.13694zm-2.9471 0.69246c-0.15111-0.002523-0.31347 0.016137-0.48731 0.056327v5.17e-4c-0.35294 0.081591-0.62896 0.22018-0.82786 0.416-0.1969 0.19257-0.26105 0.43773-0.19224 0.73536 0.04687 0.20283 0.13797 0.35089 0.27337 0.44442 0.13539 0.093558 0.28169 0.14979 0.43873 0.16898 0.15643 0.01662 0.35071 0.02292 0.58291 0.01912 0.19026-0.00514 0.32906 5.67e-4 0.416 0.016537 0.088959 0.012735 0.14084 0.051982 0.15606 0.11782 0.01706 0.073739-0.0082111 0.13081-0.076481 0.17157-0.065634 0.04014-0.15396 0.073122-0.26458 0.098702-0.15013 0.03466-0.2658 0.037641-0.34727 0.009301-0.082076-0.030968-0.13887-0.1147-0.17053-0.25166l-0.82579 0.19069c0.083419 0.36084 0.25877 0.58533 0.52607 0.67334 0.26993 0.087435 0.61671 0.08201 1.0408-0.01602 0.36348-0.084028 0.63541-0.22823 0.81545-0.43356 0.18268-0.20594 0.23707-0.46983 0.16278-0.79117-0.046486-0.18901-0.13521-0.32662-0.26613-0.4129-0.13093-0.086262-0.27314-0.13688-0.42633-0.15141-0.15116-0.017797-0.34103-0.02337-0.56999-0.01757-0.19553 0.00636-0.33982 0.001831-0.43202-0.012919-0.092203-0.014755-0.14634-0.057564-0.16278-0.12867-0.01157-0.050054 0.008825-0.099038 0.061495-0.14728 0.055297-0.048857 0.14094-0.086898 0.25683-0.11369 0.11851-0.02738 0.21306-0.021173 0.28319 0.018087 0.07012 0.039285 0.11404 0.09824 0.13229 0.17725l0.0036173 0.015503 0.81804-0.18862-0.010852-0.047543c-0.069203-0.27534-0.23219-0.45683-0.48834-0.54467-0.12838-0.04523-0.26799-0.069308-0.4191-0.07183zm14.343 0.51418-2.3508 0.54364 0.62838 2.7182 2.3787-0.54984-0.1509-0.65216-1.5053 0.3483-0.095602-0.41496 1.264-0.29249-0.14418-0.62374-1.264 0.29197-0.086816-0.37517 1.4774-0.34158-0.1509-0.65216zm-17.024 0.12247c-0.065904-2.4e-5 -0.13306 0.00742-0.20154 0.023255l-1.8092 0.41858 0.62839 2.7182 1.833-0.42375c0.14487-0.033486 0.27112-0.094861 0.37827-0.18345 0.10715-0.088592 0.18232-0.19451 0.22583-0.31833 0.04554-0.12706 0.052-0.26188 0.01912-0.40411-0.086465-0.37398-0.31159-0.56038-0.67489-0.55966l-0.0036173-0.01602c0.28279-0.15694 0.38532-0.40241 0.30799-0.73691-0.029226-0.12643-0.089671-0.233-0.1819-0.31988-0.089593-0.087502-0.19895-0.14563-0.32763-0.17415-0.063326-0.015883-0.12788-0.023746-0.19379-0.023771zm-2.5957 0.57723-0.87281 0.20154 0.37259 1.6118c0.03472 0.15014 0.020605 0.28108-0.042375 0.39274-0.060333 0.11106-0.16861 0.18473-0.32401 0.22066-0.15539 0.03592-0.28418 0.018477-0.38654-0.052193-0.10296-0.07331-0.17191-0.18623-0.20722-0.339l-0.37259-1.6118-0.87333 0.20154 0.37569 1.6237c0.085854 0.37138 0.2683 0.62772 0.54777 0.76843 0.28211 0.1401 0.6393 0.16032 1.0713 0.060461 0.43195-0.099861 0.74237-0.27438 0.93173-0.52348 0.18935-0.2491 0.2414-0.55932 0.15555-0.93069l-0.37569-1.6237zm16.206 0.11266c-0.065902-2.5e-5 -0.13306 0.007936-0.20154 0.023771l-1.8097 0.41806 0.62838 2.7182 1.8335-0.42375c0.14487-0.033486 0.27063-0.094862 0.37776-0.18345 0.10716-0.088586 0.18283-0.19451 0.22634-0.31833 0.04554-0.12706 0.051474-0.26188 0.018604-0.40411-0.086462-0.37399-0.31107-0.56038-0.67438-0.55966l-0.003617-0.01602c0.28281-0.15694 0.38533-0.4024 0.30799-0.7369-0.029234-0.12642-0.089681-0.23299-0.1819-0.31988-0.089598-0.087493-0.19895-0.14563-0.32763-0.17415-0.063325-0.015884-0.12788-0.023747-0.19379-0.023771zm-13.969 0.002583c0.04034-9.93e-4 0.07932 0.010922 0.11627 0.035657 0.04863 0.030372 0.079618 0.074342 0.093018 0.13229l0.008785 0.039791c0.01399 0.060583 0.0065056 0.11616-0.023254 0.16743-0.027739 0.04803-0.070724 0.079101-0.12867 0.092501l-0.60048 0.13849-0.10697-0.46199 0.60048-0.13901c0.013823-0.00319 0.027378-0.004836 0.040824-0.005168zm11.334 0.58343-0.87333 0.20206 0.62839 2.7182 0.87333-0.20206-0.62838-2.7182zm2.2763 0.10645c0.04034-9.94e-4 0.078803 0.010922 0.11576 0.035657 0.04866 0.030372 0.079628 0.074341 0.093018 0.13229l0.009301 0.039791c0.014 0.060582 0.006516 0.11616-0.023254 0.16743-0.027744 0.04803-0.070734 0.079101-0.12867 0.092501l-0.60048 0.13849-0.10697-0.46199 0.60048-0.13901c0.013824-0.00319 0.027377-0.004836 0.040824-0.005167zm-19.788 0.11214c-0.15111-0.002522-0.31347 0.016142-0.48731 0.056327h-5.167e-4c-0.35294 0.081591-0.62845 0.22018-0.82734 0.416-0.1969 0.19257-0.26105 0.43773-0.19224 0.73536 0.046874 0.20282 0.13797 0.35088 0.27337 0.44442 0.13539 0.093555 0.28169 0.1503 0.43873 0.1695 0.15643 0.01662 0.3507 0.02292 0.58291 0.01912 0.19026-0.00514 0.32907 5e-5 0.416 0.01602 0.088987 0.012697 0.14084 0.051972 0.15606 0.11782 0.01707 0.073744-0.0087178 0.13131-0.076998 0.17208-0.065637 0.04015-0.15345 0.072615-0.26407 0.098185-0.15013 0.03474-0.26631 0.038138-0.34778 0.009818-0.082072-0.030969-0.13886-0.11522-0.17053-0.25218l-0.82579 0.1912c0.083414 0.36085 0.25928 0.58531 0.52658 0.67334 0.26993 0.087424 0.61671 0.08202 1.0408-0.01602 0.36347-0.084033 0.6354-0.22876 0.81545-0.43408 0.18269-0.20594 0.23655-0.46932 0.16226-0.79065-0.046472-0.18904-0.1352-0.32715-0.26613-0.41341-0.13092-0.086268-0.27263-0.13637-0.42581-0.1509-0.15116-0.017797-0.34155-0.023886-0.57051-0.018086-0.19553 0.00636-0.3393 0.002347-0.4315-0.012403-0.092197-0.014761-0.14634-0.058081-0.16278-0.12919-0.01158-0.050049 0.0088249-0.099038 0.061495-0.14728 0.055297-0.048857 0.14094-0.086381 0.25683-0.11317 0.11853-0.02741 0.21256-0.02172 0.28267 0.01757 0.070132 0.03927 0.11455 0.09822 0.13281 0.17725l0.0036174 0.01602 0.81804-0.18914-0.011369-0.047542c-0.069207-0.27533-0.23168-0.45683-0.48783-0.54467-0.12838-0.04523-0.26799-0.068792-0.4191-0.071313zm6.4792 0.20619c0.041337-0.001239 0.079247 0.010951 0.1142 0.036173 0.04863 0.030373 0.080041 0.075846 0.094051 0.13643l0.008785 0.039274c0.014 0.060582 0.0065156 0.11668-0.023254 0.16795-0.027746 0.04803-0.070734 0.078584-0.12867 0.091984l-0.66404 0.15348-0.10749-0.46612 0.66404-0.15348c0.014488-0.003355 0.028596-0.005271 0.042375-0.005684zm8.9865 0.078548c-0.087381 8.5e-5 -0.18005 0.011576-0.2775 0.034106l-1.6635 0.38447 0.6289 2.7182 0.87281-0.20206-0.22944-0.99167 0.32401-0.074931 0.71158 0.88005 0.97978-0.22634-0.86765-0.99787c0.15659-0.10279 0.26396-0.23203 0.32246-0.38706 0.0585-0.15503 0.068859-0.31517 0.030489-0.48111-0.034705-0.15013-0.10223-0.28017-0.20257-0.39016-0.098329-0.1132-0.22576-0.19055-0.38241-0.23203-0.07731-0.02236-0.15963-0.033675-0.24701-0.03359zm4.6235 0.61133c0.041341-0.001239 0.079772 0.010951 0.11472 0.036174 0.04862 0.030367 0.080031 0.075845 0.094051 0.13642l0.008785 0.039274c0.014 0.060581 0.005999 0.11668-0.023771 0.16795-0.027744 0.04803-0.070217 0.078584-0.12816 0.091984l-0.66404 0.15348-0.10749-0.46612 0.66353-0.15348c0.01449-0.003355 0.028594-0.005271 0.042374-0.005684zm-4.9242 0.0863c0.049466-0.002075 0.095749 0.010386 0.13953 0.037723 0.058385 0.036449 0.095698 0.090121 0.11214 0.16123 0.01643 0.071107 0.006901 0.13743-0.028939 0.19844-0.036448 0.058375-0.088617 0.095275-0.1571 0.1111l-0.57309 0.13229-0.11576-0.50178 0.57257-0.13229c0.01712-0.00396 0.034155-0.006027 0.050643-0.006718zm-3.0009 0.030489c-0.13401 9.37e-4 -0.27676 0.018808-0.42788 0.053743-0.46356 0.10717-0.78767 0.30699-0.97255 0.59945-0.18225 0.29185-0.21982 0.66971-0.11265 1.1333 0.10717 0.46356 0.30656 0.78669 0.59841 0.96893 0.29448 0.18164 0.67332 0.21879 1.1369 0.11162 0.41615-0.096208 0.71471-0.26943 0.89555-0.51935 0.18348-0.25051 0.2326-0.56139 0.14676-0.93276l-0.80615 0.18604c0.03654 0.15803 0.021345 0.2909-0.045475 0.39791-0.066823 0.10701-0.18438 0.18014-0.35295 0.21911-0.1712 0.039577-0.31182 0.013626-0.42168-0.077514-0.10783-0.09438-0.18438-0.23918-0.22944-0.43408l-0.058394-0.2527c-0.0457-0.19754-0.040577-0.36091 0.015503-0.49041 0.058709-0.1301 0.17648-0.21552 0.35295-0.25632 0.15275-0.03529 0.28047-0.016436 0.38344 0.056844 0.10559 0.0727 0.17688 0.1882 0.21342 0.34623l0.83354-0.19275c-0.086466-0.374-0.27018-0.63433-0.55087-0.78031-0.17581-0.092881-0.37507-0.1385-0.59841-0.13694zm-2.9471 0.69246c-0.15111-0.002523-0.31347 0.016137-0.48731 0.056327v5.17e-4c-0.35294 0.081591-0.62896 0.22018-0.82786 0.416-0.1969 0.19257-0.26105 0.43773-0.19224 0.73536 0.04687 0.20283 0.13797 0.35089 0.27337 0.44442 0.13539 0.093558 0.28169 0.14979 0.43873 0.16898 0.15643 0.01662 0.35071 0.02292 0.58291 0.01912 0.19026-0.00514 0.32906 5.67e-4 0.416 0.016537 0.088959 0.012735 0.14084 0.051982 0.15606 0.11782 0.01706 0.073739-0.0082111 0.13081-0.076481 0.17157-0.065634 0.04014-0.15396 0.073122-0.26458 0.098702-0.15013 0.03466-0.2658 0.037642-0.34727 0.009302-0.082076-0.030968-0.13887-0.1147-0.17053-0.25166l-0.82579 0.19069c0.083419 0.36084 0.25877 0.58533 0.52607 0.67334 0.26993 0.087435 0.61671 0.082011 1.0408-0.016019 0.36348-0.084028 0.63541-0.22824 0.81545-0.43357 0.18268-0.20594 0.23707-0.46983 0.16278-0.79117-0.046486-0.18901-0.13521-0.32661-0.26613-0.41289-0.13093-0.086262-0.27314-0.13688-0.42633-0.15141-0.15116-0.017797-0.34103-0.02337-0.56999-0.01757-0.19553 0.00636-0.33982 0.001831-0.43202-0.012919-0.092203-0.014755-0.14634-0.057565-0.16278-0.12868-0.01157-0.050054 0.008825-0.099038 0.061495-0.14728 0.055297-0.048857 0.14094-0.086898 0.25683-0.11369 0.11851-0.02738 0.21306-0.021173 0.28319 0.018087 0.07012 0.039285 0.11404 0.09824 0.13229 0.17725l0.0036173 0.015503 0.81804-0.18862-0.010852-0.047542c-0.069203-0.27534-0.23219-0.45683-0.48834-0.54467-0.12838-0.04523-0.26799-0.069308-0.4191-0.07183zm14.343 0.38189-2.3508 0.54364 0.62838 2.7182 2.3787-0.54984-0.1509-0.65216-1.5053 0.3483-0.095602-0.41496 1.264-0.29249-0.14418-0.62373-1.264 0.29197-0.086816-0.37517 1.4774-0.34158-0.1509-0.65216zm-17.024 0.25476c-0.065904-2.5e-5 -0.13306 0.007419-0.20154 0.023254l-1.8092 0.41858 0.62839 2.7182 1.833-0.42375c0.14487-0.033486 0.27112-0.094862 0.37827-0.18345 0.10715-0.088592 0.18232-0.19451 0.22583-0.31833 0.04554-0.12706 0.052-0.26188 0.01912-0.40411-0.086465-0.37398-0.31159-0.56038-0.67489-0.55966l-0.0036173-0.01602c0.28279-0.15694 0.38532-0.40241 0.30799-0.73691-0.029226-0.12643-0.089671-0.233-0.1819-0.31988-0.089593-0.087502-0.19895-0.14563-0.32763-0.17415-0.063326-0.015884-0.12788-0.023747-0.19379-0.023771zm13.611 0.55759c-0.065902-2.4e-5 -0.13306 0.007936-0.20154 0.023771l-1.8097 0.41806 0.62838 2.7182 1.8335-0.42375c0.14487-0.033486 0.27063-0.094861 0.37776-0.18345 0.10716-0.088586 0.18283-0.19451 0.22634-0.31833 0.04554-0.12706 0.051474-0.26188 0.018604-0.40411-0.086462-0.37399-0.31107-0.56038-0.67438-0.55966l-0.003617-0.01602c0.28281-0.15694 0.38533-0.40241 0.30799-0.73691-0.029234-0.12642-0.089681-0.23299-0.1819-0.31988-0.089598-0.087493-0.19895-0.14563-0.32763-0.17415-0.063325-0.015883-0.12788-0.023746-0.19379-0.023771zm-16.206 0.019637-0.87281 0.20154 0.37259 1.6118c0.03472 0.15014 0.020605 0.28108-0.042375 0.39274-0.060333 0.11106-0.16861 0.18473-0.32401 0.22066-0.15539 0.03592-0.28418 0.018476-0.38654-0.052194-0.10296-0.07331-0.17191-0.18623-0.20722-0.339l-0.37259-1.6118-0.87333 0.20154 0.37569 1.6237c0.085854 0.37138 0.2683 0.62772 0.54777 0.76843 0.28211 0.1401 0.6393 0.16032 1.0713 0.060462 0.43195-0.099861 0.74237-0.27439 0.93173-0.52348 0.18935-0.2491 0.2414-0.55932 0.15555-0.93069l-0.37569-1.6237zm2.2371 0.11524c0.04034-9.94e-4 0.07932 0.010922 0.11627 0.035657 0.04863 0.030372 0.079618 0.074341 0.093018 0.13229l0.008785 0.039791c0.01399 0.060583 0.0065056 0.11616-0.023254 0.16743-0.027739 0.04803-0.070724 0.0791-0.12867 0.0925l-0.60048 0.13849-0.10697-0.46199 0.60048-0.13901c0.013823-0.00319 0.027378-0.004836 0.040824-0.005167zm11.334 0.45114-0.87333 0.20206 0.62839 2.7182 0.87333-0.20206-0.62838-2.7182zm2.2763 0.10645c0.04034-9.93e-4 0.078803 0.010922 0.11576 0.035657 0.04866 0.030372 0.079628 0.074342 0.093018 0.13229l0.009301 0.039791c0.014 0.060582 0.006516 0.11616-0.023254 0.16743-0.027744 0.04803-0.070734 0.079101-0.12867 0.092501l-0.60048 0.13849-0.10697-0.46199 0.60048-0.13901c0.013824-0.00319 0.027377-0.004836 0.040824-0.005168zm-19.788 0.24443c-0.15111-0.002521-0.31347 0.016142-0.48731 0.056327h-5.167e-4c-0.35294 0.081591-0.62845 0.22018-0.82734 0.416-0.1969 0.19257-0.26105 0.43773-0.19224 0.73536 0.046874 0.20282 0.13797 0.35088 0.27337 0.44442 0.13539 0.093555 0.28169 0.1503 0.43873 0.1695 0.15643 0.01662 0.3507 0.02292 0.58291 0.01912 0.19026-0.00514 0.32907 5e-5 0.416 0.01602 0.088987 0.012697 0.14084 0.051972 0.15606 0.11782 0.01707 0.073744-0.0087178 0.13131-0.076998 0.17208-0.065637 0.04015-0.15345 0.072615-0.26407 0.098185-0.15013 0.03474-0.26631 0.038139-0.34778 0.009819-0.082072-0.030969-0.13886-0.11522-0.17053-0.25218l-0.82579 0.1912c0.083414 0.36085 0.25928 0.58531 0.52658 0.67334 0.26993 0.087424 0.61671 0.082021 1.0408-0.016019 0.36347-0.084033 0.6354-0.22876 0.81545-0.43408 0.18269-0.20594 0.23655-0.46932 0.16226-0.79065-0.046472-0.18904-0.1352-0.32715-0.26613-0.41341-0.13092-0.086268-0.27263-0.13636-0.42581-0.1509-0.15116-0.017797-0.34155-0.023887-0.57051-0.018087-0.19553 0.00636-0.3393 0.002348-0.4315-0.012402-0.092197-0.014761-0.14634-0.058082-0.16278-0.12919-0.01158-0.050049 0.0088249-0.099037 0.061495-0.14728 0.055297-0.048857 0.14094-0.086382 0.25683-0.11317 0.11853-0.02741 0.21256-0.02172 0.28267 0.01757 0.070132 0.03927 0.11455 0.09822 0.13281 0.17725l0.0036174 0.01602 0.81804-0.18914-0.011369-0.047542c-0.069207-0.27533-0.23168-0.45683-0.48783-0.54467-0.12838-0.04523-0.26799-0.068792-0.4191-0.071313zm15.466 0.15244c-0.087381 8.6e-5 -0.18005 0.011577-0.2775 0.034107l-1.6635 0.38447 0.6289 2.7182 0.87281-0.20206-0.22944-0.99167 0.32401-0.074931 0.71158 0.88005 0.97978-0.22634-0.86765-0.99787c0.15659-0.10279 0.26396-0.23203 0.32246-0.38706 0.0585-0.15503 0.068859-0.31518 0.030489-0.48111-0.034705-0.15013-0.10223-0.28017-0.20257-0.39016-0.098329-0.1132-0.22576-0.19055-0.38241-0.23203-0.07731-0.022359-0.15963-0.033675-0.24701-0.03359zm-8.9865 0.053744c0.041337-0.001239 0.079247 0.010951 0.1142 0.036173 0.04863 0.030373 0.080041 0.075846 0.094051 0.13643l0.008785 0.039274c0.014 0.060582 0.0065156 0.11668-0.023254 0.16795-0.027746 0.04803-0.070734 0.078584-0.12867 0.091984l-0.66404 0.15348-0.10749-0.46612 0.66404-0.15348c0.014488-0.003355 0.028596-0.005271 0.042375-0.005684zm13.61 0.55759c0.041341-0.001239 0.079772 0.010951 0.11472 0.036173 0.04862 0.030367 0.080031 0.075846 0.094051 0.13643l0.008785 0.039274c0.014 0.060581 0.005999 0.11668-0.023771 0.16795-0.027744 0.04803-0.070217 0.078584-0.12816 0.091984l-0.66404 0.15348-0.10749-0.46612 0.66353-0.15348c0.01449-0.003355 0.028594-0.005271 0.042374-0.005684zm-4.9242 0.086299c0.049466-0.002074 0.095749 0.010387 0.13953 0.037724 0.058385 0.036449 0.095698 0.090121 0.11214 0.16123 0.01643 0.071107 0.006901 0.13743-0.028939 0.19844-0.036448 0.058375-0.088617 0.095274-0.1571 0.1111l-0.57309 0.13229-0.11576-0.50178 0.57257-0.13229c0.01712-0.00396 0.034155-0.006026 0.050643-0.006718zm-3.0009 0.030489c-0.13401 9.37e-4 -0.27676 0.018809-0.42788 0.053744-0.46356 0.10717-0.78767 0.30699-0.97255 0.59945-0.18225 0.29185-0.21982 0.66971-0.11265 1.1333 0.10717 0.46356 0.30656 0.78669 0.59841 0.96893 0.29448 0.18164 0.67332 0.21879 1.1369 0.11162 0.41615-0.096208 0.71471-0.26943 0.89555-0.51935 0.18348-0.25051 0.2326-0.56139 0.14676-0.93276l-0.80615 0.18604c0.03654 0.15803 0.021345 0.2909-0.045475 0.39791-0.066823 0.10701-0.18438 0.18014-0.35295 0.21911-0.1712 0.039577-0.31182 0.013625-0.42168-0.077515-0.10783-0.09438-0.18438-0.23918-0.22944-0.43408l-0.058394-0.2527c-0.0457-0.19754-0.040577-0.36091 0.015503-0.49041 0.058709-0.1301 0.17648-0.21552 0.35295-0.25632 0.15275-0.03529 0.28047-0.016436 0.38344 0.056844 0.10559 0.0727 0.17688 0.1882 0.21342 0.34623l0.83354-0.19275c-0.086466-0.374-0.27018-0.63433-0.55087-0.78031-0.17581-0.092881-0.37507-0.1385-0.59841-0.13694zm-2.9471 0.69246c-0.15111-0.002523-0.31347 0.016137-0.48731 0.056327v5.17e-4c-0.35294 0.081591-0.62896 0.22018-0.82786 0.416-0.1969 0.19257-0.26105 0.43773-0.19224 0.73536 0.04687 0.20283 0.13797 0.35089 0.27337 0.44442 0.13539 0.093558 0.28169 0.14979 0.43873 0.16898 0.15643 0.01662 0.35071 0.02292 0.58291 0.01912 0.19026-0.00514 0.32906 5.67e-4 0.416 0.016537 0.088959 0.012735 0.14084 0.051982 0.15606 0.11782 0.01706 0.073739-0.0082111 0.13081-0.076481 0.17157-0.065634 0.04014-0.15396 0.073122-0.26458 0.098702-0.15013 0.03466-0.2658 0.037641-0.34727 0.009301-0.082076-0.030968-0.13887-0.1147-0.17053-0.25166l-0.82579 0.19069c0.083419 0.36084 0.25877 0.58533 0.52607 0.67334 0.26993 0.087435 0.61671 0.08201 1.0408-0.01602 0.36348-0.084028 0.63541-0.22823 0.81545-0.43356 0.18268-0.20594 0.23707-0.46983 0.16278-0.79117-0.046486-0.18901-0.13521-0.32662-0.26613-0.4129-0.13093-0.086262-0.27314-0.13688-0.42633-0.15141-0.15116-0.017797-0.34103-0.02337-0.56999-0.01757-0.19553 0.00636-0.33982 0.001831-0.43202-0.012919-0.092203-0.014755-0.14634-0.057564-0.16278-0.12867-0.01157-0.050054 0.008825-0.099038 0.061495-0.14728 0.055297-0.048857 0.14094-0.086898 0.25683-0.11369 0.11851-0.02738 0.21306-0.021173 0.28319 0.018087 0.07012 0.039285 0.11404 0.09824 0.13229 0.17725l0.0036173 0.015503 0.81804-0.18862-0.010852-0.047543c-0.069203-0.27534-0.23219-0.45683-0.48834-0.54467-0.12838-0.04523-0.26799-0.069308-0.4191-0.07183zm-2.681 0.63665c-0.065904-2.4e-5 -0.13306 0.00742-0.20154 0.023255l-1.8092 0.41858 0.62839 2.7182 1.833-0.42375c0.14487-0.033486 0.27112-0.094861 0.37827-0.18345 0.10715-0.088592 0.18232-0.19451 0.22583-0.31833 0.04554-0.12706 0.052-0.26188 0.01912-0.40411-0.086465-0.37398-0.31159-0.56038-0.67489-0.55966l-0.0036173-0.01602c0.28279-0.15694 0.38532-0.40241 0.30799-0.73691-0.029226-0.12643-0.089671-0.233-0.1819-0.31988-0.089593-0.087502-0.19895-0.14563-0.32763-0.17415-0.063326-0.015883-0.12788-0.023746-0.19379-0.023771zm-2.5957 0.57723-0.87281 0.20154 0.37259 1.6118c0.03472 0.15014 0.020605 0.28108-0.042375 0.39274-0.060333 0.11106-0.16861 0.18473-0.32401 0.22066-0.15539 0.03592-0.28418 0.018477-0.38654-0.052193-0.10296-0.07331-0.17191-0.18623-0.20722-0.339l-0.37259-1.6118-0.87333 0.20154 0.37569 1.6237c0.085854 0.37138 0.2683 0.62772 0.54777 0.76843 0.28211 0.1401 0.6393 0.16032 1.0713 0.060461 0.43195-0.099861 0.74237-0.27438 0.93173-0.52348 0.18935-0.2491 0.2414-0.55932 0.15555-0.93069l-0.37569-1.6237zm2.2371 0.11524c0.04034-9.93e-4 0.07932 0.010922 0.11627 0.035657 0.04863 0.030372 0.079618 0.074342 0.093018 0.13229l0.008785 0.039791c0.01399 0.060583 0.0065056 0.11616-0.023254 0.16743-0.027739 0.04803-0.070724 0.079101-0.12867 0.092501l-0.60048 0.13849-0.10697-0.46199 0.60048-0.13901c0.013823-0.00319 0.027378-0.004836 0.040824-0.005168zm-6.1774 0.80202c-0.15111-0.002522-0.31347 0.016142-0.48731 0.056327h-5.167e-4c-0.35294 0.081591-0.62845 0.22018-0.82734 0.416-0.1969 0.19257-0.26105 0.43773-0.19224 0.73536 0.046874 0.20282 0.13797 0.35088 0.27337 0.44442 0.13539 0.093555 0.28169 0.1503 0.43873 0.1695 0.15643 0.01662 0.3507 0.02292 0.58291 0.01912 0.19026-0.00514 0.32907 5e-5 0.416 0.01602 0.088987 0.012697 0.14084 0.051972 0.15606 0.11782 0.01707 0.073744-0.0087178 0.13131-0.076998 0.17208-0.065637 0.04015-0.15345 0.072615-0.26407 0.098185-0.15013 0.03474-0.26631 0.038138-0.34778 0.009818-0.082072-0.030969-0.13886-0.11522-0.17053-0.25218l-0.82579 0.1912c0.083414 0.36085 0.25928 0.58531 0.52658 0.67334 0.26993 0.087424 0.61671 0.08202 1.0408-0.01602 0.36347-0.084033 0.6354-0.22876 0.81545-0.43408 0.18269-0.20594 0.23655-0.46932 0.16226-0.79065-0.046472-0.18904-0.1352-0.32715-0.26613-0.41341-0.13092-0.086268-0.27263-0.13636-0.42581-0.1509-0.15116-0.017797-0.34155-0.023886-0.57051-0.018086-0.19553 0.00636-0.3393 0.002347-0.4315-0.012403-0.092197-0.014761-0.14634-0.058081-0.16278-0.12919-0.01158-0.050049 0.0088249-0.099038 0.061495-0.14728 0.055297-0.048857 0.14094-0.086381 0.25683-0.11317 0.11853-0.02741 0.21256-0.02172 0.28267 0.01757 0.070132 0.03927 0.11455 0.09822 0.13281 0.17725l0.0036174 0.01602 0.81804-0.18914-0.011369-0.047542c-0.069207-0.27533-0.23168-0.45683-0.48783-0.54467-0.12838-0.04523-0.26799-0.068792-0.4191-0.071313zm6.4792 0.20619c0.041337-0.001239 0.079247 0.010951 0.1142 0.036173 0.04863 0.030373 0.080041 0.075846 0.094051 0.13643l0.008785 0.039274c0.014 0.060582 0.0065156 0.11668-0.023254 0.16795-0.027746 0.04803-0.070734 0.078584-0.12867 0.091984l-0.66404 0.15348-0.10749-0.46612 0.66404-0.15348c0.014488-0.003355 0.028596-0.005271 0.042375-0.005684z"/><path id="path464" d="m28.263-3.5796c-0.065904-2.47e-5 -0.13306 0.0074214-0.20154 0.023254l-1.8092 0.41858 0.62838 2.7182 1.833-0.42375c0.14487-0.033486 0.27112-0.094859 0.37827-0.18345 0.080267-0.066366 0.14256-0.14236 0.18707-0.22841v-0.67231c-0.11129-0.25481-0.31704-0.38197-0.61702-0.38137l-0.003618-0.01602c0.28279-0.15694 0.38532-0.40241 0.30799-0.73691-0.029226-0.12643-0.089671-0.23299-0.1819-0.31988-0.089593-0.087498-0.19895-0.14563-0.32763-0.17415-0.063326-0.015882-0.12788-0.023746-0.19379-0.023771zm-2.5957 0.57723-0.87282 0.20154 0.37259 1.6118c0.03472 0.15014 0.020605 0.28108-0.042375 0.39274-0.060333 0.11106-0.16861 0.18473-0.32401 0.22066-0.15539 0.035914-0.28418 0.018473-0.38654-0.052193-0.10296-0.07331-0.17191-0.18623-0.20722-0.339l-0.37259-1.6118-0.87333 0.20154 0.37569 1.6237c0.085854 0.37138 0.2683 0.62772 0.54777 0.76843 0.28211 0.14011 0.6393 0.16032 1.0713 0.060461 0.43195-0.099861 0.74237-0.27439 0.93173-0.52348 0.18935-0.2491 0.2414-0.55932 0.15555-0.93069l-0.37569-1.6237zm2.2371 0.11524c0.04034-9.934e-4 0.07932 0.01092 0.11627 0.035657 0.04863 0.030373 0.079618 0.074347 0.093018 0.13229l0.008785 0.039791c0.01399 0.060583 0.006505 0.11616-0.023255 0.16743-0.027739 0.04803-0.070724 0.079104-0.12867 0.092501l-0.60048 0.13849-0.10697-0.46199 0.60048-0.13901c0.013823-0.00319 0.027378-0.0048365 0.040824-0.0051676zm-6.1774 0.8015c-0.15111-0.0025224-0.31348 0.016657-0.48731 0.056844h-5.17e-4c-0.35294 0.081591-0.62845 0.22018-0.82734 0.416-0.1969 0.19257-0.26105 0.43773-0.19224 0.73536 0.046874 0.20282 0.13797 0.35088 0.27337 0.44442 0.13539 0.093558 0.28169 0.1503 0.43873 0.1695 0.15643 0.016606 0.3507 0.02292 0.58291 0.01912 0.19026-0.005136 0.32906 4.969e-5 0.416 0.01602 0.088987 0.012697 0.14084 0.051976 0.15606 0.11782 0.01707 0.07374-0.008718 0.13132-0.076998 0.17208-0.065637 0.040148-0.15345 0.072617-0.26407 0.098185-0.15013 0.034694-0.26631 0.038144-0.34778 0.0098185-0.082072-0.030969-0.13886-0.11522-0.17053-0.25218l-0.82579 0.1912c0.083414 0.36085 0.25928 0.58532 0.52658 0.67334 0.26993 0.087429 0.61671 0.082016 1.0408-0.01602 0.36347-0.084033 0.6354-0.22876 0.81545-0.43408 0.18269-0.20594 0.23655-0.46932 0.16226-0.79065-0.046472-0.18904-0.1352-0.32715-0.26613-0.41341-0.13092-0.086266-0.27263-0.13636-0.42581-0.1509-0.15116-0.017798-0.34155-0.023877-0.57051-0.018087-0.19553 0.006354-0.3393 0.0023487-0.4315-0.012402-0.092197-0.01476-0.14634-0.05808-0.16278-0.12919-0.01158-0.050046 0.008825-0.099038 0.061495-0.14728 0.055297-0.048858 0.14094-0.086384 0.25683-0.11317 0.11853-0.02741 0.21256-0.021717 0.28267 0.01757 0.070132 0.03927 0.11455 0.098222 0.13281 0.17725l0.003617 0.01602 0.81804-0.18914-0.011369-0.047542c-0.069207-0.27533-0.23168-0.45683-0.48782-0.54467-0.12838-0.045232-0.26799-0.069308-0.4191-0.07183zm6.4792 0.20671c0.041337-0.0012374 0.079247 0.010948 0.1142 0.036174 0.04863 0.030374 0.080041 0.075847 0.094051 0.13643l0.008785 0.039274c0.014 0.060581 0.006515 0.11668-0.023255 0.16795-0.027746 0.04803-0.070734 0.078587-0.12867 0.091984l-0.66404 0.15348-0.10749-0.46612 0.66404-0.15348c0.014488-0.0033528 0.028596-0.005272 0.042375-0.0056845zm0.056844 2.0035c-0.065904-2.462e-5 -0.13306 0.0074194-0.20154 0.023254l-1.8092 0.41858 0.62838 2.7182 1.833-0.42375c0.14487-0.033486 0.27112-0.094861 0.37827-0.18345 0.080267-0.066366 0.14256-0.14236 0.18707-0.22841v-0.67231c-0.11129-0.25481-0.31704-0.38197-0.61702-0.38137l-0.003618-0.01602c0.28279-0.15694 0.38532-0.40241 0.30799-0.73691-0.029226-0.12643-0.089671-0.233-0.1819-0.31988-0.089593-0.087502-0.19895-0.14563-0.32763-0.17415-0.063326-0.015884-0.12788-0.023747-0.19379-0.023771zm-2.5957 0.57723-0.87282 0.20154 0.37259 1.6118c0.03472 0.15014 0.020605 0.28108-0.042375 0.39274-0.060333 0.11106-0.16861 0.18473-0.32401 0.22066-0.15539 0.03592-0.28418 0.018477-0.38654-0.052193-0.10296-0.07331-0.17191-0.18623-0.20722-0.339l-0.37259-1.6118-0.87333 0.20154 0.37569 1.6237c0.085854 0.37138 0.2683 0.62772 0.54777 0.76843 0.28211 0.1401 0.6393 0.16032 1.0713 0.060461 0.43195-0.099861 0.74237-0.27439 0.93173-0.52348 0.18935-0.2491 0.2414-0.55932 0.15555-0.93069l-0.37569-1.6237zm2.2371 0.11524c0.04034-9.9375e-4 0.07932 0.010922 0.11627 0.035657 0.04863 0.030372 0.079618 0.074342 0.093018 0.13229l0.008785 0.039791c0.01399 0.060583 0.006505 0.11616-0.023255 0.16743-0.027739 0.04803-0.070724 0.079101-0.12867 0.092501l-0.60048 0.13849-0.10697-0.46199 0.60048-0.13901c0.013823-0.00319 0.027378-0.0048364 0.040824-0.0051676zm-6.1774 0.80202c-0.15111-0.0025212-0.31348 0.016142-0.48731 0.056327h-5.17e-4c-0.35294 0.081591-0.62845 0.22018-0.82734 0.416-0.1969 0.19257-0.26105 0.43773-0.19224 0.73536 0.046874 0.20282 0.13797 0.35088 0.27337 0.44442 0.13539 0.093555 0.28169 0.1503 0.43873 0.1695 0.15643 0.01662 0.3507 0.02292 0.58291 0.01912 0.19026-0.00514 0.32906 4.97e-5 0.416 0.01602 0.088987 0.012697 0.14084 0.051972 0.15606 0.11782 0.01707 0.073744-0.008718 0.13131-0.076998 0.17208-0.065637 0.04015-0.15345 0.072615-0.26407 0.098185-0.15013 0.03474-0.26631 0.038138-0.34778 0.0098185-0.082072-0.030969-0.13886-0.11522-0.17053-0.25218l-0.82579 0.1912c0.083414 0.36085 0.25928 0.58531 0.52658 0.67334 0.26993 0.087424 0.61671 0.08202 1.0408-0.01602 0.36347-0.084033 0.6354-0.22876 0.81545-0.43408 0.18269-0.20594 0.23655-0.46932 0.16226-0.79065-0.046472-0.18904-0.1352-0.32715-0.26613-0.41341-0.13092-0.086268-0.27263-0.13637-0.42581-0.1509-0.15116-0.017797-0.34155-0.023887-0.57051-0.018087-0.19553 0.00636-0.3393 0.0023477-0.4315-0.012402-0.092197-0.014761-0.14634-0.058081-0.16278-0.12919-0.01158-0.050049 0.008825-0.099038 0.061495-0.14728 0.055297-0.048857 0.14094-0.086381 0.25683-0.11317 0.11853-0.02741 0.21256-0.02172 0.28267 0.01757 0.070132 0.03927 0.11455 0.09822 0.13281 0.17725l0.003617 0.01602 0.81804-0.18914-0.011369-0.047542c-0.069207-0.27533-0.23168-0.45683-0.48782-0.54467-0.12838-0.04523-0.26799-0.068792-0.4191-0.071314zm6.4792 0.20619c0.041337-0.0012389 0.079247 0.010951 0.1142 0.036174 0.04863 0.030373 0.080041 0.075846 0.094051 0.13643l0.008785 0.039274c0.014 0.060582 0.006515 0.11668-0.023255 0.16795-0.027746 0.04803-0.070734 0.078584-0.12867 0.091984l-0.66404 0.15348-0.10749-0.46612 0.66404-0.15348c0.014488-0.003355 0.028596-0.0052715 0.042375-0.0056844zm0.056844 2.1358c-0.065904-2.47e-5 -0.13306 0.0074214-0.20154 0.023254l-1.8092 0.41858 0.62838 2.7182 1.833-0.42375c0.14487-0.033486 0.27112-0.094859 0.37827-0.18345 0.080267-0.066366 0.14256-0.14236 0.18707-0.22841v-0.67231c-0.11129-0.25481-0.31704-0.38197-0.61702-0.38137l-0.003618-0.01602c0.28279-0.15694 0.38532-0.40241 0.30799-0.73691-0.029226-0.12643-0.089671-0.23299-0.1819-0.31988-0.089593-0.087498-0.19895-0.14563-0.32763-0.17415-0.063326-0.015882-0.12788-0.023746-0.19379-0.023771zm-2.5957 0.57723-0.87282 0.20154 0.37259 1.6118c0.03472 0.15014 0.020605 0.28108-0.042375 0.39274-0.060333 0.11106-0.16861 0.18473-0.32401 0.22066-0.15539 0.035914-0.28418 0.018473-0.38654-0.052193-0.10296-0.07331-0.17191-0.18623-0.20722-0.339l-0.37259-1.6118-0.87333 0.20154 0.37569 1.6237c0.085854 0.37138 0.2683 0.62772 0.54777 0.76843 0.28211 0.1401 0.6393 0.16032 1.0713 0.060461 0.43195-0.099861 0.74237-0.27439 0.93173-0.52348 0.18935-0.2491 0.2414-0.55932 0.15555-0.93069l-0.37569-1.6237zm2.2371 0.11524c0.04034-9.934e-4 0.07932 0.01092 0.11627 0.035657 0.04863 0.030373 0.079618 0.074347 0.093018 0.13229l0.008785 0.039791c0.01399 0.060583 0.006505 0.11616-0.023255 0.16743-0.027739 0.04803-0.070724 0.079104-0.12867 0.092501l-0.60048 0.13849-0.10697-0.46199 0.60048-0.13901c0.013823-0.00319 0.027378-0.0048365 0.040824-0.0051676zm-6.1774 0.8015c-0.15111-0.0025224-0.31348 0.016657-0.48731 0.056844h-5.17e-4c-0.35294 0.081591-0.62845 0.22018-0.82734 0.416-0.1969 0.19257-0.26105 0.43773-0.19224 0.73536 0.046874 0.20282 0.13797 0.35088 0.27337 0.44442 0.13539 0.093558 0.28169 0.1503 0.43873 0.1695 0.15643 0.016606 0.3507 0.02292 0.58291 0.01912 0.19026-0.005136 0.32906 4.97e-5 0.416 0.01602 0.088987 0.012697 0.14084 0.051976 0.15606 0.11782 0.01707 0.07374-0.008718 0.13132-0.076998 0.17208-0.065637 0.040148-0.15345 0.072617-0.26407 0.098185-0.15013 0.034694-0.26631 0.038144-0.34778 0.0098185-0.082072-0.030969-0.13886-0.11522-0.17053-0.25218l-0.82579 0.1912c0.083414 0.36085 0.25928 0.58532 0.52658 0.67334 0.26993 0.087429 0.61671 0.082016 1.0408-0.01602 0.36347-0.084033 0.6354-0.22876 0.81545-0.43408 0.18269-0.20594 0.23655-0.46932 0.16226-0.79065-0.046472-0.18904-0.1352-0.32715-0.26613-0.41341-0.13092-0.086266-0.27263-0.13636-0.42581-0.1509-0.15116-0.017798-0.34155-0.023877-0.57051-0.018087-0.19553 0.006354-0.3393 0.0023487-0.4315-0.012402-0.092197-0.01476-0.14634-0.05808-0.16278-0.12919-0.01158-0.050046 0.008825-0.099038 0.061495-0.14728 0.055297-0.048858 0.14094-0.086384 0.25683-0.11317 0.11853-0.02741 0.21256-0.021717 0.28267 0.01757 0.070132 0.03927 0.11455 0.098222 0.13281 0.17725l0.003617 0.01602 0.81804-0.18914-0.011369-0.047542c-0.069207-0.27533-0.23168-0.45683-0.48782-0.54467-0.12838-0.045232-0.26799-0.069308-0.4191-0.07183zm6.4792 0.20671c0.041337-0.0012375 0.079247 0.010948 0.1142 0.036174 0.04863 0.030374 0.080041 0.075847 0.094051 0.13643l0.008785 0.039274c0.014 0.060581 0.006515 0.11668-0.023255 0.16795-0.027746 0.04803-0.070734 0.078587-0.12867 0.091984l-0.66404 0.15348-0.10749-0.46612 0.66404-0.15348c0.014488-0.0033528 0.028596-0.005272 0.042375-0.0056844zm0.056844 1.9678c-0.065904-2.47e-5 -0.13306 0.0079361-0.20154 0.023771l-1.8092 0.41858 0.62838 2.7177 1.833-0.42375c0.14487-0.033486 0.27112-0.094344 0.37827-0.18293 0.080267-0.066366 0.14256-0.14273 0.18707-0.22893v-0.67179c-0.11129-0.25493-0.31704-0.38249-0.61702-0.38189l-0.003618-0.015503c0.28279-0.15694 0.38532-0.40292 0.30799-0.73742-0.029226-0.12643-0.089671-0.233-0.1819-0.31988-0.089593-0.087502-0.19895-0.14563-0.32763-0.17415-0.063326-0.015884-0.12788-0.023746-0.19379-0.023771zm-2.5957 0.57723-0.87282 0.20205 0.37259 1.6118c0.03472 0.15014 0.020605 0.28108-0.042375 0.39274-0.060333 0.11106-0.16861 0.18473-0.32401 0.22066-0.15539 0.03592-0.28418 0.018477-0.38654-0.052193-0.10296-0.07331-0.17191-0.18623-0.20722-0.339l-0.37259-1.6123-0.87333 0.20205 0.37569 1.6237c0.085854 0.37138 0.2683 0.62772 0.54777 0.76843 0.28211 0.1401 0.6393 0.1598 1.0713 0.059944 0.43195-0.099861 0.74237-0.27438 0.93173-0.52348 0.18935-0.2491 0.2414-0.55932 0.15555-0.93069l-0.37569-1.6237zm2.2371 0.11576c0.04034-9.937e-4 0.07932 0.010405 0.11627 0.03514 0.04863 0.030372 0.079618 0.074858 0.093018 0.13281l0.008785 0.039274c0.01399 0.060583 0.006505 0.11668-0.023255 0.16795-0.027739 0.04803-0.070724 0.078584-0.12867 0.091984l-0.60048 0.13901-0.10697-0.4625 0.60048-0.13849c0.013823-0.00319 0.027378-0.0048364 0.040824-0.0051677zm-6.1774 0.8015c-0.15111-0.0025213-0.31348 0.016142-0.48731 0.056327l-5.17e-4 5.167e-4c-0.35294 0.081591-0.62845 0.22018-0.82734 0.416-0.1969 0.19257-0.26105 0.43773-0.19224 0.73536 0.046874 0.20282 0.13797 0.35088 0.27337 0.44442 0.13539 0.093555 0.28169 0.14978 0.43873 0.16898 0.15643 0.01662 0.3507 0.02292 0.58291 0.01912 0.19026-0.00514 0.32906 5.67e-4 0.416 0.016537 0.088987 0.012697 0.14084 0.051972 0.15606 0.11782 0.01707 0.073744-0.008718 0.1308-0.076998 0.17157-0.065637 0.04015-0.15345 0.073132-0.26407 0.098702-0.15013 0.03474-0.26631 0.038138-0.34778 0.009818-0.082072-0.030969-0.13886-0.11522-0.17053-0.25218l-0.82579 0.19069c0.083414 0.36085 0.25928 0.58531 0.52658 0.67334 0.26993 0.087424 0.61671 0.082537 1.0408-0.015503 0.36347-0.084033 0.6354-0.22876 0.81545-0.43408 0.18269-0.20594 0.23655-0.46984 0.16226-0.79117-0.046472-0.18904-0.1352-0.32664-0.26613-0.4129-0.13092-0.086268-0.27263-0.13636-0.42581-0.1509-0.15116-0.017797-0.34155-0.023887-0.57051-0.018087-0.19553 0.00636-0.3393 0.001831-0.4315-0.012919-0.092197-0.014761-0.14634-0.057564-0.16278-0.12867-0.01158-0.050049 0.008825-0.099038 0.061495-0.14728 0.055297-0.048857 0.14094-0.086898 0.25683-0.11369 0.11853-0.02741 0.21256-0.021203 0.28267 0.018087 0.070132 0.03927 0.11455 0.09822 0.13281 0.17725l0.003617 0.01602 0.81804-0.18914-0.011369-0.047542c-0.069207-0.27533-0.23168-0.45683-0.48782-0.54467-0.12838-0.04523-0.26799-0.069309-0.4191-0.07183zm6.4792 0.20671c0.041337-0.0012389 0.079247 0.010434 0.1142 0.035657 0.04863 0.030373 0.080041 0.075846 0.094051 0.13643l0.008785 0.039791c0.014 0.060582 0.006515 0.11616-0.023255 0.16743-0.027746 0.04803-0.070734 0.079101-0.12867 0.092501l-0.66404 0.15348-0.10749-0.46612 0.66404-0.15348c0.014488-0.003355 0.028596-0.0052714 0.042375-0.0056844zm0.056844 2.1342c-0.065904-2.5e-5 -0.13306 0.007936-0.20154 0.023771l-1.8092 0.41806 0.62838 2.7182 1.833-0.42375c0.14487-0.033486 0.27112-0.094344 0.37827-0.18293 0.080267-0.066367 0.14256-0.14273 0.18707-0.22893v-0.67179c-0.11129-0.25493-0.31704-0.38249-0.61702-0.38189l-0.003618-0.015503c0.28279-0.15694 0.38532-0.40292 0.30799-0.73742-0.029226-0.12643-0.089671-0.233-0.1819-0.31988-0.089593-0.087502-0.19895-0.14563-0.32763-0.17415-0.063326-0.015883-0.12788-0.023746-0.19379-0.023771zm-2.5957 0.57723-0.87282 0.20206 0.37259 1.6118c0.03472 0.15014 0.020605 0.28108-0.042375 0.39274-0.060333 0.11106-0.16861 0.18421-0.32401 0.22014-0.15539 0.03592-0.28418 0.018994-0.38654-0.051676-0.10296-0.07331-0.17191-0.18675-0.20722-0.33951l-0.37259-1.6118-0.87333 0.20205 0.37569 1.6237c0.085854 0.37138 0.2683 0.6272 0.54777 0.76791 0.28211 0.1401 0.6393 0.16032 1.0713 0.060461 0.43195-0.099861 0.74237-0.27438 0.93173-0.52348 0.18935-0.2491 0.2414-0.55932 0.15555-0.93069l-0.37569-1.6237zm2.2371 0.11524c0.04034-9.93e-4 0.07932 0.010922 0.11627 0.035657 0.04863 0.030372 0.079618 0.074858 0.093018 0.13281l0.008785 0.039275c0.01399 0.060583 0.006505 0.11668-0.023255 0.16795-0.027739 0.04803-0.070724 0.078584-0.12867 0.091984l-0.60048 0.13901-0.10697-0.4625 0.60048-0.13849c0.013823-0.00319 0.027378-0.005353 0.040824-0.005685zm-6.1774 0.80202c-0.15111-0.002522-0.31348 0.016142-0.48731 0.056327h-5.17e-4c-0.35294 0.081591-0.62845 0.2207-0.82734 0.41651-0.1969 0.19257-0.26105 0.43721-0.19224 0.73484 0.046874 0.20282 0.13797 0.35139 0.27337 0.44493 0.13539 0.093555 0.28169 0.14978 0.43873 0.16898 0.15643 0.01662 0.3507 0.02292 0.58291 0.01912 0.19026-0.00514 0.32906 5.66e-4 0.416 0.016536 0.088987 0.012697 0.14084 0.051973 0.15606 0.11782 0.01707 0.073744-0.008718 0.1308-0.076998 0.17156-0.065637 0.04015-0.15345 0.073132-0.26407 0.098702-0.15013 0.03474-0.26631 0.037622-0.34778 0.009302-0.082072-0.030969-0.13886-0.1147-0.17053-0.25166l-0.82579 0.19069c0.083414 0.36085 0.25928 0.58531 0.52658 0.67334 0.26993 0.087424 0.61671 0.08202 1.0408-0.01602 0.36347-0.084033 0.6354-0.22876 0.81545-0.43408 0.18269-0.20594 0.23655-0.46932 0.16226-0.79065-0.046472-0.18904-0.1352-0.32664-0.26613-0.4129-0.13092-0.086268-0.27263-0.13688-0.42581-0.15141-0.15116-0.017797-0.34155-0.023887-0.57051-0.018087-0.19553 0.00636-0.3393 0.002348-0.4315-0.012402-0.092197-0.014761-0.14634-0.057564-0.16278-0.12867-0.01158-0.050049 0.008825-0.099038 0.061495-0.14728 0.055297-0.048857 0.14094-0.086898 0.25683-0.11369 0.11853-0.02741 0.21256-0.02172 0.28267 0.01757 0.070132 0.03927 0.11455 0.098737 0.13281 0.17777l0.003617 0.015503 0.81804-0.18914-0.011369-0.047026c-0.069207-0.27533-0.23168-0.45683-0.48782-0.54467-0.12838-0.04523-0.26799-0.069309-0.4191-0.07183zm6.4792 0.20619c0.041337-0.001238 0.079247 0.010951 0.1142 0.036174 0.04863 0.030373 0.080041 0.075846 0.094051 0.13643l0.008785 0.039791c0.014 0.060582 0.006515 0.11616-0.023255 0.16743-0.027746 0.04803-0.070734 0.079101-0.12867 0.092501l-0.66404 0.15296-0.10749-0.46612 0.66404-0.15348c0.014488-0.003355 0.028596-0.005272 0.042375-0.005685zm0.056844 2.1358c-0.065904-2.4e-5 -0.13306 0.007937-0.20154 0.023772l-1.8092 0.41806 0.62838 2.7182 1.833-0.42375c0.14487-0.033486 0.27112-0.094344 0.37827-0.18293 0.080267-0.066366 0.14256-0.14273 0.18707-0.22893v-0.67179c-0.11129-0.25493-0.31704-0.38249-0.61702-0.38189l-0.003618-0.015503c0.28279-0.15694 0.38532-0.40292 0.30799-0.73742-0.029226-0.12643-0.089671-0.233-0.1819-0.31988-0.089593-0.087502-0.19895-0.14563-0.32763-0.17415-0.063326-0.015884-0.12788-0.023747-0.19379-0.023772zm-2.5957 0.57723-0.87282 0.20206 0.37259 1.6118c0.03472 0.15014 0.020605 0.28108-0.042375 0.39274-0.060333 0.11106-0.16861 0.18421-0.32401 0.22014-0.15539 0.03592-0.28418 0.018994-0.38654-0.051676-0.10296-0.07331-0.17191-0.18675-0.20722-0.33951l-0.37259-1.6118-0.87333 0.20206 0.37569 1.6237c0.085854 0.37138 0.2683 0.6272 0.54777 0.76791 0.28211 0.1401 0.6393 0.16032 1.0713 0.060461 0.43195-0.099861 0.74237-0.27438 0.93173-0.52348 0.18935-0.2491 0.2414-0.55932 0.15555-0.93069l-0.37569-1.6237zm2.2371 0.11524c0.04034-9.94e-4 0.07932 0.010921 0.11627 0.035656 0.04863 0.030372 0.079618 0.074859 0.093018 0.13281l0.008785 0.039274c0.01399 0.060583 0.006505 0.11668-0.023255 0.16795-0.027739 0.04803-0.070724 0.078584-0.12867 0.091984l-0.60048 0.13901-0.10697-0.4625 0.60048-0.13849c0.013823-0.00319 0.027378-0.005353 0.040824-0.005684zm-6.1774 0.80202c-0.15111-0.002521-0.31348 0.016142-0.48731 0.056327h-5.17e-4c-0.35294 0.081591-0.62845 0.2207-0.82734 0.41651-0.1969 0.19257-0.26105 0.43721-0.19224 0.73484 0.046874 0.20282 0.13797 0.35139 0.27337 0.44493 0.13539 0.093555 0.28169 0.14978 0.43873 0.16898 0.15643 0.01662 0.3507 0.02292 0.58291 0.01912 0.19026-0.00514 0.32906 5.67e-4 0.416 0.016537 0.088987 0.012697 0.14084 0.051972 0.15606 0.11782 0.01707 0.073744-0.008718 0.1308-0.076998 0.17157-0.065637 0.04015-0.15345 0.073132-0.26407 0.098702-0.15013 0.03474-0.26631 0.037622-0.34778 0.009302-0.082072-0.030969-0.13886-0.1147-0.17053-0.25166l-0.82579 0.19069c0.083414 0.36085 0.25928 0.58531 0.52658 0.67334 0.26993 0.087424 0.61671 0.082021 1.0408-0.016019 0.36347-0.084033 0.6354-0.22876 0.81545-0.43408 0.18269-0.20594 0.23655-0.46932 0.16226-0.79065-0.046472-0.18904-0.1352-0.32664-0.26613-0.4129-0.13092-0.086268-0.27263-0.13688-0.42581-0.15141-0.15116-0.017797-0.34155-0.023886-0.57051-0.018086-0.19553 0.00636-0.3393 0.002347-0.4315-0.012403-0.092197-0.014761-0.14634-0.057564-0.16278-0.12867-0.01158-0.050049 0.008825-0.099038 0.061495-0.14728 0.055297-0.048857 0.14094-0.086898 0.25683-0.11369 0.11853-0.02741 0.21256-0.02172 0.28267 0.01757 0.070132 0.03927 0.11455 0.098737 0.13281 0.17777l0.003617 0.015503 0.81804-0.18914-0.011369-0.047025c-0.069207-0.27533-0.23168-0.45683-0.48782-0.54467-0.12838-0.04523-0.26799-0.069309-0.4191-0.07183zm6.4792 0.20619c0.041337-0.001239 0.079247 0.010951 0.1142 0.036173 0.04863 0.030373 0.080041 0.075846 0.094051 0.13643l0.008785 0.039791c0.014 0.060582 0.006515 0.11616-0.023255 0.16743-0.027746 0.04803-0.070734 0.0791-0.12867 0.0925l-0.66404 0.15296-0.10749-0.46612 0.66404-0.15348c0.014488-0.003355 0.028596-0.005271 0.042375-0.005684zm0.056844 2.0402c-0.065904-2.4e-5 -0.13306 0.00742-0.20154 0.023255l-1.8092 0.41858 0.62838 2.7182 1.833-0.42375c0.14487-0.033486 0.27112-0.094861 0.37827-0.18345 0.080267-0.066366 0.14256-0.14236 0.18707-0.22841v-0.67231c-0.11129-0.25481-0.31704-0.38197-0.61702-0.38137l-0.003618-0.01602c0.28279-0.15694 0.38532-0.40241 0.30799-0.73691-0.029226-0.12643-0.089671-0.233-0.1819-0.31988-0.089593-0.087502-0.19895-0.14563-0.32763-0.17415-0.063326-0.015883-0.12788-0.023746-0.19379-0.023771zm-2.5957 0.57723-0.87282 0.20154 0.37259 1.6118c0.03472 0.15014 0.020605 0.28108-0.042375 0.39274-0.060333 0.11106-0.16861 0.18473-0.32401 0.22066-0.15539 0.03592-0.28418 0.018477-0.38654-0.052193-0.10296-0.07331-0.17191-0.18623-0.20722-0.339l-0.37259-1.6118-0.87333 0.20154 0.37569 1.6237c0.085854 0.37138 0.2683 0.62772 0.54777 0.76843 0.28211 0.1401 0.6393 0.16032 1.0713 0.060461 0.43195-0.099861 0.74237-0.27438 0.93173-0.52348 0.18935-0.2491 0.2414-0.55932 0.15555-0.93069l-0.37569-1.6237zm2.2371 0.11524c0.04034-9.93e-4 0.07932 0.010922 0.11627 0.035657 0.04863 0.030372 0.079618 0.074342 0.093018 0.13229l0.008785 0.039791c0.01399 0.060583 0.006505 0.11616-0.023255 0.16743-0.027739 0.04803-0.070724 0.079101-0.12867 0.092501l-0.60048 0.13849-0.10697-0.46199 0.60048-0.13901c0.013823-0.00319 0.027378-0.004836 0.040824-0.005168zm-6.1774 0.80202c-0.15111-0.002522-0.31348 0.016142-0.48731 0.056327h-5.17e-4c-0.35294 0.081591-0.62845 0.22018-0.82734 0.416-0.1969 0.19257-0.26105 0.43773-0.19224 0.73536 0.046874 0.20282 0.13797 0.35088 0.27337 0.44442 0.13539 0.093555 0.28169 0.1503 0.43873 0.1695 0.15643 0.01662 0.3507 0.02292 0.58291 0.01912 0.19026-0.00514 0.32906 5e-5 0.416 0.01602 0.088987 0.012697 0.14084 0.051972 0.15606 0.11782 0.01707 0.073744-0.008718 0.13131-0.076998 0.17208-0.065637 0.04015-0.15345 0.072615-0.26407 0.098185-0.15013 0.03474-0.26631 0.038138-0.34778 0.009818-0.082072-0.030969-0.13886-0.11522-0.17053-0.25218l-0.82579 0.1912c0.083414 0.36085 0.25928 0.58531 0.52658 0.67334 0.26993 0.087424 0.61671 0.08202 1.0408-0.01602 0.36347-0.084033 0.6354-0.22876 0.81545-0.43408 0.18269-0.20594 0.23655-0.46932 0.16226-0.79065-0.046472-0.18904-0.1352-0.32715-0.26613-0.41341-0.13092-0.086268-0.27263-0.13637-0.42581-0.1509-0.15116-0.017797-0.34155-0.023886-0.57051-0.018086-0.19553 0.00636-0.3393 0.002347-0.4315-0.012403-0.092197-0.014761-0.14634-0.058081-0.16278-0.12919-0.01158-0.050049 0.008825-0.099038 0.061495-0.14728 0.055297-0.048857 0.14094-0.086381 0.25683-0.11317 0.11853-0.02741 0.21256-0.02172 0.28267 0.01757 0.070132 0.03927 0.11455 0.09822 0.13281 0.17725l0.003617 0.01602 0.81804-0.18914-0.011369-0.047542c-0.069207-0.27533-0.23168-0.45683-0.48782-0.54467-0.12838-0.04523-0.26799-0.068792-0.4191-0.071313zm6.4792 0.20619c0.041337-0.001239 0.079247 0.010951 0.1142 0.036173 0.04863 0.030373 0.080041 0.075846 0.094051 0.13643l0.008785 0.039274c0.014 0.060582 0.006515 0.11668-0.023255 0.16795-0.027746 0.04803-0.070734 0.078584-0.12867 0.091984l-0.66404 0.15348-0.10749-0.46612 0.66404-0.15348c0.014488-0.003355 0.028596-0.005271 0.042375-0.005684zm0.056844 2.1358c-0.065904-2.5e-5 -0.13306 0.007419-0.20154 0.023254l-1.8092 0.41858 0.62838 2.7182 1.833-0.42375c0.14487-0.033486 0.27112-0.094862 0.37827-0.18345 0.080267-0.066366 0.14256-0.14236 0.18707-0.22841v-0.67231c-0.11129-0.25481-0.31704-0.38197-0.61702-0.38137l-0.003618-0.01602c0.28279-0.15694 0.38532-0.40241 0.30799-0.73691-0.029226-0.12643-0.089671-0.233-0.1819-0.31988-0.089593-0.087502-0.19895-0.14563-0.32763-0.17415-0.063326-0.015884-0.12788-0.023747-0.19379-0.023771zm-2.5957 0.57722-0.87282 0.20154 0.37259 1.6118c0.03472 0.15014 0.020605 0.28108-0.042375 0.39274-0.060333 0.11106-0.16861 0.18473-0.32401 0.22066-0.15539 0.03592-0.28418 0.018476-0.38654-0.052194-0.10296-0.07331-0.17191-0.18623-0.20722-0.339l-0.37259-1.6118-0.87333 0.20154 0.37569 1.6237c0.085854 0.37138 0.2683 0.62772 0.54777 0.76843 0.28211 0.1401 0.6393 0.16032 1.0713 0.060462 0.43195-0.099861 0.74237-0.27439 0.93173-0.52348 0.18935-0.2491 0.2414-0.55932 0.15555-0.93069l-0.37569-1.6237zm2.2371 0.11524c0.04034-9.94e-4 0.07932 0.010922 0.11627 0.035657 0.04863 0.030372 0.079618 0.074341 0.093018 0.13229l0.008785 0.039791c0.01399 0.060583 0.006505 0.11616-0.023255 0.16743-0.027739 0.04803-0.070724 0.0791-0.12867 0.0925l-0.60048 0.13849-0.10697-0.46199 0.60048-0.13901c0.013823-0.00319 0.027378-0.004836 0.040824-0.005167zm-6.1774 0.80202c-0.15111-0.002521-0.31348 0.016142-0.48731 0.056327h-5.17e-4c-0.35294 0.081591-0.62845 0.22018-0.82734 0.416-0.1969 0.19257-0.26105 0.43773-0.19224 0.73536 0.046874 0.20282 0.13797 0.35088 0.27337 0.44442 0.13539 0.093555 0.28169 0.1503 0.43873 0.1695 0.15643 0.01662 0.3507 0.02292 0.58291 0.01912 0.19026-0.00514 0.32906 5e-5 0.416 0.01602 0.088987 0.012697 0.14084 0.051972 0.15606 0.11782 0.01707 0.073744-0.008718 0.13131-0.076998 0.17208-0.065637 0.04015-0.15345 0.072615-0.26407 0.098185-0.15013 0.03474-0.26631 0.038139-0.34778 0.009819-0.082072-0.030969-0.13886-0.11522-0.17053-0.25218l-0.82579 0.1912c0.083414 0.36085 0.25928 0.58531 0.52658 0.67334 0.26993 0.087424 0.61671 0.082021 1.0408-0.016019 0.36347-0.084033 0.6354-0.22876 0.81545-0.43408 0.18269-0.20594 0.23655-0.46932 0.16226-0.79065-0.046472-0.18904-0.1352-0.32715-0.26613-0.41341-0.13092-0.086268-0.27263-0.13636-0.42581-0.1509-0.15116-0.017797-0.34155-0.023887-0.57051-0.018087-0.19553 0.00636-0.3393 0.002348-0.4315-0.012402-0.092197-0.014761-0.14634-0.058082-0.16278-0.12919-0.01158-0.050049 0.008825-0.099037 0.061495-0.14728 0.055297-0.048857 0.14094-0.086382 0.25683-0.11317 0.11853-0.02741 0.21256-0.02172 0.28267 0.01757 0.070132 0.03927 0.11455 0.09822 0.13281 0.17725l0.003617 0.01602 0.81804-0.18914-0.011369-0.047542c-0.069207-0.27533-0.23168-0.45683-0.48782-0.54467-0.12838-0.04523-0.26799-0.068792-0.4191-0.071313zm6.4792 0.20619c0.041337-0.001239 0.079247 0.010951 0.1142 0.036173 0.04863 0.030373 0.080041 0.075846 0.094051 0.13643l0.008785 0.039274c0.014 0.060582 0.006515 0.11668-0.023255 0.16795-0.027746 0.04803-0.070734 0.078584-0.12867 0.091984l-0.66404 0.15348-0.10749-0.46612 0.66404-0.15348c0.014488-0.003355 0.028596-0.005271 0.042375-0.005684z"/></g><metadata id="metadata452"><rdf:RDF><cc:Work rdf:about=""><dc:creator><cc:Agent><dc:title>dekuuSkrb</dc:title></cc:Agent></dc:creator><dc:rights><cc:Agent><dc:title>dekuuSkrb</dc:title></cc:Agent></dc:rights><dc:identifier>eternalsmile</dc:identifier><dc:source>eternalsmile</dc:source></cc:Work></rdf:RDF></metadata></svg>
