<?xml version="1.0" encoding="UTF-8"?>
<!-- Created with Inkscape (http://www.inkscape.org/) -->
<svg id="svg446" width="115.75" height="112.37" version="1.1" viewBox="0 0 30.624 29.731" xml:space="preserve" xmlns="http://www.w3.org/2000/svg" xmlns:cc="http://creativecommons.org/ns#" xmlns:dc="http://purl.org/dc/elements/1.1/" xmlns:rdf="http://www.w3.org/1999/02/22-rdf-syntax-ns#"><g id="layer1" transform="translate(-156.25 -400.01)"><path id="path13" d="m168.8 429.52c-7.1534-0.94092-12.735-7.4504-12.544-14.63 0.10586-3.9857 1.5017-7.2083 4.3985-10.155 6.6963-6.8117 18.195-6.1588 23.445 1.3311 2.1679 3.0929 2.959 5.818 2.7414 9.4426-0.22621 3.7664-1.6104 6.7349-4.4792 9.6062-2.1662 2.168-5.0741 3.6826-8.227 4.2851-2.2346 0.42698-2.8908 0.44178-5.3345 0.12035zm1.7198-6.3387v-2.3812h-4.2662l0.86007 1.1976c0.80764 1.1246 3.0666 3.5649 3.3 3.5649 0.0584 0 0.10613-1.0716 0.10613-2.3812zm4.9087-1.0248c0.35614-0.6372 0.64752-1.2031 0.64752-1.2575 0-0.10802-2.9042-0.14066-2.9202-0.0328-5e-3 0.0364-0.0791 1.0186-0.16377 2.1828l-0.15399 2.1167 0.97146-0.92531c0.5343-0.50892 1.2628-1.4466 1.619-2.0838zm2.3989 1.8458c1.1569-0.92375 2.482-2.4158 2.482-2.7946 0-0.0786-0.34697-0.143-0.77105-0.143-0.64644 0-0.90768 0.22451-1.6164 1.3891-0.46491 0.76399-1.0912 1.657-1.3917 1.9844-0.86708 0.94464-0.11538 0.69211 1.2972-0.43579zm-13.18-1.284c-0.21888-0.25466-0.77235-1.2448-1.2299-2.2002-0.69597-1.4532-0.85867-2.1669-0.99519-4.3656-0.20065-3.2316 0.26148-5.2904 1.748-7.7878 1.0181-1.7103 1.452-2.0856 4.2326-3.6615 1.6316-0.92469 1.5103-1.0426-0.41589-0.40427-2.7608 0.91496-5.0214 3.2476-6.2212 6.4192-0.86981 2.2995-0.80377 5.6888 0.15696 8.0555 0.65878 1.6228 2.526 4.4078 2.9554 4.4078 0.0919 0-0.0119-0.20836-0.23081-0.46303zm5.8881-6.4823c9e-3 -1.2005 0.0385-2.808 0.0662-3.5721l0.0502-1.3892-1.5875-0.0297c-0.87312-0.0163-2.0585-0.046-2.6341-0.0659-0.98809-0.0343-1.0588 0.0155-1.2664 0.88977-0.25999 1.0954-0.28956 3.9569-0.0554 5.3578l0.16587 0.99219h5.2452zm6.6935 1.4552c0.33974-1.8067 0.46334-3.9208 0.29905-5.1153l-0.17891-1.3009h-4.1837l-5e-3 1.7859c-3e-3 0.98227-0.0774 2.5896-0.16631 3.5719l-0.16166 1.7859h2.1297c2.1137 0 2.1307-5e-3 2.2665-0.72761zm4.578-0.26458c0.27641-1.3792 0.19105-4.5488-0.14607-5.424-0.22682-0.5888-0.44558-0.72748-1.1467-0.72697l-0.86645 6.3e-4v7.1429l0.9802-2.2e-4c0.92088-2e-4 0.99224-0.0603 1.179-0.9924zm-11.023-11.087c0-2.1325-0.0222-2.2156-0.5201-1.9491-0.28605 0.15309-1.246 1.1395-2.1332 2.1921l-1.6132 1.9138 1.6702 0.13229c2.6679 0.21131 2.5963 0.27446 2.5963-2.2891zm5.8208 2.3153c0-0.30813-2.1609-3.1844-2.8842-3.8389l-0.55544-0.50266v4.5799h1.7198c0.94589 0 1.7198-0.10727 1.7198-0.23837zm3.1215 0.0124c0.25479-0.16162 0.0242-0.57284-0.89369-1.5938-1.3967-1.5535-1.7912-1.6404-0.79718-0.1757 0.36468 0.53738 0.73577 1.2062 0.82465 1.4862 0.17695 0.55751 0.34646 0.61294 0.86622 0.28323z"/><path id="path15" d="m171.28 400.03c-3.8426 0.17514-7.6914 1.7266-10.621 4.7067-2.8968 2.9467-4.2928 6.1693-4.3987 10.155-0.0109 0.411-3e-3 0.82008 0.0233 1.2258 0.2159-3.7333 1.6135-6.7935 4.3754-9.603 6.6963-6.8117 18.195-6.1592 23.445 1.3307 1.7533 2.5014 2.6064 4.7626 2.7533 7.4533 0.1745-3.5194-0.62795-6.1982-2.7533-9.2304-2.953-4.2131-7.883-6.263-12.824-6.0379z" fill="#edefec" opacity=".203"/></g><metadata id="metadata452"><rdf:RDF><cc:Work rdf:about=""><dc:creator><cc:Agent><dc:title>dekuuSkrb</dc:title></cc:Agent></dc:creator><dc:rights><cc:Agent><dc:title>dekuuSkrb</dc:title></cc:Agent></dc:rights><dc:identifier>eternalsmile</dc:identifier><dc:source>eternalsmile</dc:source></cc:Work></rdf:RDF></metadata></svg>
